<svg id="Layer_2" data-name="Layer 2" xmlns="http://www.w3.org/2000/svg" viewBox="0 0 227.34 227.34"><defs><style>.cls-1{fill:#00afca;}.cls-2,.cls-3{fill:#fec50c;}.cls-3{stroke:#00afca;stroke-width:0.38px;}</style></defs><title>flag-kz2</title><circle class="cls-1" cx="113.67" cy="113.67" r="113.67"/><circle class="cls-2" cx="113.67" cy="100.3" r="29.03"/><g id="r4"><path id="r" class="cls-2" d="M327.55,95.19a2.18,2.18,0,0,0,2.37-2.39c0-1.73-2.37-9.95-2.37-9.95s-2.37,8.22-2.37,9.95A2.17,2.17,0,0,0,327.55,95.19Z" transform="translate(-213.87 -27.88)"/><path id="r-2" data-name="r" class="cls-2" d="M360.54,128.18a2.18,2.18,0,0,0,2.39,2.37c1.73,0,9.95-2.37,9.95-2.37s-8.22-2.37-9.95-2.37A2.17,2.17,0,0,0,360.54,128.18Z" transform="translate(-213.87 -27.88)"/><path id="r-3" data-name="r" class="cls-2" d="M327.55,161.17a2.18,2.18,0,0,0-2.37,2.39c0,1.73,2.37,9.95,2.37,9.95s2.37-8.22,2.37-9.95A2.17,2.17,0,0,0,327.55,161.17Z" transform="translate(-213.87 -27.88)"/><path id="r-4" data-name="r" class="cls-2" d="M294.56,128.18a2.18,2.18,0,0,0-2.39-2.37c-1.73,0-9.95,2.37-9.95,2.37s8.22,2.37,9.95,2.37A2.17,2.17,0,0,0,294.56,128.18Z" transform="translate(-213.87 -27.88)"/></g><g id="r4-2" data-name="r4"><path id="r-5" data-name="r" class="cls-2" d="M340.17,97.7a2.18,2.18,0,0,0,3.11-1.3c.66-1.59,1.61-10.1,1.61-10.1s-5.34,6.69-6,8.28A2.17,2.17,0,0,0,340.17,97.7Z" transform="translate(-213.87 -27.88)"/><path id="r-6" data-name="r" class="cls-2" d="M358,140.81a2.18,2.18,0,0,0,1.3,3.11c1.59.66,10.1,1.61,10.1,1.61s-6.69-5.34-8.28-6A2.17,2.17,0,0,0,358,140.81Z" transform="translate(-213.87 -27.88)"/><path id="r-7" data-name="r" class="cls-2" d="M314.92,158.66a2.18,2.18,0,0,0-3.11,1.3c-.66,1.59-1.61,10.1-1.61,10.1s5.34-6.69,6-8.28A2.17,2.17,0,0,0,314.92,158.66Z" transform="translate(-213.87 -27.88)"/><path id="r-8" data-name="r" class="cls-2" d="M297.07,115.56a2.18,2.18,0,0,0-1.3-3.11c-1.59-.66-10.1-1.61-10.1-1.61s6.69,5.34,8.28,6A2.17,2.17,0,0,0,297.07,115.56Z" transform="translate(-213.87 -27.88)"/></g><g id="r4-3" data-name="r4"><path id="r-9" data-name="r" class="cls-2" d="M350.87,104.85a2.18,2.18,0,0,0,3.37,0c1.22-1.22,5.35-8.71,5.35-8.71s-7.49,4.13-8.71,5.35A2.17,2.17,0,0,0,350.87,104.85Z" transform="translate(-213.87 -27.88)"/><path id="r-10" data-name="r" class="cls-2" d="M350.87,151.51a2.18,2.18,0,0,0,0,3.37c1.22,1.22,8.71,5.35,8.71,5.35s-4.13-7.49-5.35-8.71A2.17,2.17,0,0,0,350.87,151.51Z" transform="translate(-213.87 -27.88)"/><path id="r-11" data-name="r" class="cls-2" d="M304.22,151.51a2.18,2.18,0,0,0-3.37,0c-1.22,1.22-5.35,8.71-5.35,8.71s7.49-4.13,8.71-5.35A2.17,2.17,0,0,0,304.22,151.51Z" transform="translate(-213.87 -27.88)"/><path id="r-12" data-name="r" class="cls-2" d="M304.22,104.85a2.18,2.18,0,0,0,0-3.37c-1.22-1.22-8.71-5.35-8.71-5.35s4.13,7.49,5.35,8.71A2.17,2.17,0,0,0,304.22,104.85Z" transform="translate(-213.87 -27.88)"/></g><g id="r16"><g id="r4-4" data-name="r4"><path id="r-13" data-name="r" class="cls-2" d="M358,115.56a2.18,2.18,0,0,0,3.12,1.28c1.59-.66,8.28-6,8.28-6s-8.5,1-10.1,1.61A2.17,2.17,0,0,0,358,115.56Z" transform="translate(-213.87 -27.88)"/><path id="r-14" data-name="r" class="cls-2" d="M340.17,158.66a2.18,2.18,0,0,0-1.28,3.12c.66,1.59,6,8.28,6,8.28s-1-8.5-1.61-10.1A2.17,2.17,0,0,0,340.17,158.66Z" transform="translate(-213.87 -27.88)"/><path id="r-15" data-name="r" class="cls-2" d="M297.07,140.81a2.18,2.18,0,0,0-3.12-1.28c-1.59.66-8.28,6-8.28,6s8.5-1,10.1-1.61A2.17,2.17,0,0,0,297.07,140.81Z" transform="translate(-213.87 -27.88)"/><path id="r-16" data-name="r" class="cls-2" d="M314.92,97.7a2.18,2.18,0,0,0,1.28-3.12c-.66-1.59-6-8.28-6-8.28s1,8.5,1.61,10.1A2.17,2.17,0,0,0,314.92,97.7Z" transform="translate(-213.87 -27.88)"/></g></g><path id="r-17" data-name="r" class="cls-2" d="M334,95.83a2.18,2.18,0,0,0,2.79-1.89c.34-1.69-.39-10.22-.39-10.22s-3.93,7.6-4.27,9.29A2.17,2.17,0,0,0,334,95.83Z" transform="translate(-213.87 -27.88)"/><path id="r-18" data-name="r" class="cls-2" d="M359.9,134.62a2.18,2.18,0,0,0,1.89,2.79c1.69.34,10.22-.39,10.22-.39s-7.6-3.93-9.29-4.27A2.17,2.17,0,0,0,359.9,134.62Z" transform="translate(-213.87 -27.88)"/><path id="r-19" data-name="r" class="cls-2" d="M321.11,160.54a2.18,2.18,0,0,0-2.79,1.89c-.34,1.69.39,10.22.39,10.22s3.93-7.6,4.27-9.29A2.17,2.17,0,0,0,321.11,160.54Z" transform="translate(-213.87 -27.88)"/><path id="r-20" data-name="r" class="cls-2" d="M295.19,121.74a2.18,2.18,0,0,0-1.89-2.79c-1.69-.34-10.22.39-10.22.39s7.6,3.93,9.29,4.27A2.17,2.17,0,0,0,295.19,121.74Z" transform="translate(-213.87 -27.88)"/><g id="r4-5" data-name="r4"><path id="r-21" data-name="r" class="cls-2" d="M345.87,100.75a2.18,2.18,0,0,0,3.3-.67c1-1.44,3.55-9.59,3.55-9.59s-6.54,5.52-7.5,7A2.17,2.17,0,0,0,345.87,100.75Z" transform="translate(-213.87 -27.88)"/><path id="r-22" data-name="r" class="cls-2" d="M355,146.51a2.18,2.18,0,0,0,.67,3.3c1.44,1,9.59,3.55,9.59,3.55s-5.52-6.54-7-7.5A2.17,2.17,0,0,0,355,146.51Z" transform="translate(-213.87 -27.88)"/><path id="r-23" data-name="r" class="cls-2" d="M309.22,155.61a2.18,2.18,0,0,0-3.3.67c-1,1.44-3.55,9.59-3.55,9.59s6.54-5.52,7.5-7A2.17,2.17,0,0,0,309.22,155.61Z" transform="translate(-213.87 -27.88)"/><path id="r-24" data-name="r" class="cls-2" d="M300.12,109.85a2.18,2.18,0,0,0-.67-3.3c-1.44-1-9.59-3.55-9.59-3.55s5.52,6.54,7,7.5A2.17,2.17,0,0,0,300.12,109.85Z" transform="translate(-213.87 -27.88)"/></g><g id="sun"><g id="r4-6" data-name="r4"><path id="r-25" data-name="r" class="cls-2" d="M355,109.85a2.18,2.18,0,0,0,3.31.64c1.44-1,7-7.5,7-7.5s-8.15,2.59-9.59,3.55A2.17,2.17,0,0,0,355,109.85Z" transform="translate(-213.87 -27.88)"/><path id="r-26" data-name="r" class="cls-2" d="M345.87,155.61a2.18,2.18,0,0,0-.64,3.31c1,1.44,7.5,7,7.5,7s-2.59-8.15-3.55-9.59A2.17,2.17,0,0,0,345.87,155.61Z" transform="translate(-213.87 -27.88)"/><path id="r-27" data-name="r" class="cls-2" d="M300.12,146.51a2.18,2.18,0,0,0-3.31-.64c-1.44,1-7,7.5-7,7.5s8.15-2.59,9.59-3.55A2.17,2.17,0,0,0,300.12,146.51Z" transform="translate(-213.87 -27.88)"/><path id="r-28" data-name="r" class="cls-2" d="M309.22,100.75a2.18,2.18,0,0,0,.64-3.31c-1-1.44-7.5-7-7.5-7s2.59,8.15,3.55,9.59A2.17,2.17,0,0,0,309.22,100.75Z" transform="translate(-213.87 -27.88)"/></g><g id="r16-2" data-name="r16"><g id="r4-7" data-name="r4"><path id="r-29" data-name="r" class="cls-2" d="M359.9,121.74a2.18,2.18,0,0,0,2.81,1.86c1.69-.34,9.29-4.27,9.29-4.27s-8.53-.72-10.22-.39A2.17,2.17,0,0,0,359.9,121.74Z" transform="translate(-213.87 -27.88)"/><path id="r-30" data-name="r" class="cls-2" d="M334,160.54a2.18,2.18,0,0,0-1.86,2.81c.34,1.69,4.27,9.29,4.27,9.29s.72-8.53.39-10.22A2.17,2.17,0,0,0,334,160.54Z" transform="translate(-213.87 -27.88)"/><path id="r-31" data-name="r" class="cls-2" d="M295.19,134.62a2.18,2.18,0,0,0-2.81-1.86c-1.69.34-9.29,4.27-9.29,4.27s8.53.72,10.22.39A2.17,2.17,0,0,0,295.19,134.62Z" transform="translate(-213.87 -27.88)"/><path id="r-32" data-name="r" class="cls-2" d="M321.11,95.83A2.18,2.18,0,0,0,323,93c-.34-1.69-4.27-9.29-4.27-9.29s-.72,8.53-.39,10.22A2.17,2.17,0,0,0,321.11,95.83Z" transform="translate(-213.87 -27.88)"/></g></g></g><g id="bird"><path class="cls-2" d="M322.37,191.07a9,9,0,0,0-2.27.38c-1,.14-2,.49-3,.65l-.4.06-.68.06a2.5,2.5,0,0,1,.07.56,1.81,1.81,0,0,1-.07.54,1.31,1.31,0,0,1-.29.45,1.59,1.59,0,0,1-.47.38,1.5,1.5,0,0,1-.56.14,1.46,1.46,0,0,1-.58-.07,1.63,1.63,0,0,1-.54-.33,4.64,4.64,0,0,1-.6.11,2.5,2.5,0,0,1-.57,0,6,6,0,0,1-.6-.2,3.48,3.48,0,0,1-.56-.29,5.13,5.13,0,0,0-2,1.6,2.41,2.41,0,0,0-.36,1.15,3.14,3.14,0,0,0,.31,1.5c.08.14.14-.5.39-.58a3.82,3.82,0,0,1,1.44-.72c.44-.22.38,0,.2.36,0,.18-.29.86,0,.52a14,14,0,0,1,4.65-.9c2.29-.24,4.58-.29,6.88-.32s4.32.06,6.47.14a15.77,15.77,0,0,0,3.08.09c.24-.06.63-.08.77-.22a3.89,3.89,0,0,0-1.51-.34h-4.11a12.44,12.44,0,0,1-3.42-.56c-.29-.12-.55-.39-.83-.09a4.69,4.69,0,0,1-3.49-.11c.5-.7,1.11-1.31,1.66-2-.45-.07-.88-.17-1.32-.27.78-.54,1.51-1.15,2.27-1.73Z" transform="translate(-213.87 -27.88)"/><path class="cls-2" d="M356,198.52c-1.56.94-2.76-.73-4.06-1.22-.93.51-1,2.2-1.89,3-1,1.19-2.32-.33-2.23-1.5-1.25,1.05-1.88,3.44-3.9,3.12-1-.78-1.67-2.42-2.4-.55-.6.91-2.18,2.21-3,.83-.25-1.21-.86-2.64-1.52-.71a2.57,2.57,0,0,1-3.32,1.77c-.77-.63.62-3-.36-2.8-1.47,1-2.32,3.38-4.37,3.19-.79-.89.48-2.4-.39-3.39-1,1.32-2.17,3.26-4,3.39-.86-.7,0-2.7-.52-3-1.83,1.1-3.75,3-6.05,2.44.9-3.42,4.64-4.63,7.78-4.89,5.41-.67,11.11.56,16.32-1.4.84-.51,2.88-1.24,2.15-2.43-.64-.94,1.67-.57,1.9-1.67-.14-1.39,1.06-1.2,2.24-1.32,5.26-.23,10.45.88,15.7,1.07.4,2.55-2.44,4.35-4.72,3.56-1.09.18-2.72-2.51-2.4-.55-.22,1-.07,2.38-1,3.06m-44.75-5.23c1.22,1.11,2.07-.21,3.21-.69,3.82-1.31,7.15-3.61,10.43-5.9,2-1.65,3.71-3.78,6.39-4.32,5.21-1.58,10.75-1.38,16-2.84,4-5.45,10.75-7.4,16.42-10.54a3.53,3.53,0,0,0,2.17-2.6,26.18,26.18,0,0,1,8.6-8.51,8,8,0,0,1,5.48-1,9.15,9.15,0,0,1-2.95,5.73c1.26,0,2.34-.82,3.62-.78.44,2.28-2,3.48-3.34,4.9.73.17,3.53.38,2,1.11-1.94,1.35-4.16,2.27-6,3.84,1.65.3,1.84.65.16,1.25-.91.62-2.66.83-2.83,2,1.25.77-.58,1.53-1.28,1.78-1.35.31-2.76.9-1,1.92a3.56,3.56,0,0,1-3.31,1.14c.36,1.16.88,2.45-.62,3a23.25,23.25,0,0,1-11.56,4.83,24.84,24.84,0,0,0,15.27-3.45c.6-.71,3.73-1.46,2-2.06-.82-.34-2.59-.72-2.71-1.35,2.45-1.51,5.54-1,8.17-1.87.07-.85-2-.62-2.78-.81-1.84-.15-1.74-.62,0-.8,2.25-.6,4.8-.71,6.69-2.18-1.54-.71-3.48-.09-5.12-.67,2.79-1.22,6.07-1.34,8.57-3.17,1.14-1.27-1.46-.87-2.22-.84-1.54.27-2.26-.47-.5-1.11,3-2.21,6.78-3.64,8.88-6.84.5-.72,1.17-2.87-.42-2.1-2.09.69-3.93,3-6.31,2.32a52.18,52.18,0,0,0,12.36-12.8c.17-1.45-2.11-1.61-2.7-.47-3,2.9-5.74,6.33-9.6,8.15a60.43,60.43,0,0,0,9.41-12.16c.57-1.3,2.11-2.87,1.27-4.31-1.34-1.11-3-.09-3.72,1.24-2.34,3.06-4.12,6.63-7.13,9.12,2.64-5,5.37-10.39,5.43-16.19,0-1.19-.25-3-1.87-2.73-1.29.23-1,2.16-1.51,3.13-1.17,4-1.72,8.26-4.11,11.73.54-3.22,1.48-6.58.76-9.83-.34-1.45-2.69-.83-2.38.61-2.81,14.21-12.34,26.64-24.81,33.83a53.48,53.48,0,0,1-18.58,6.26c-1.75.38-3.63.16-5.3.75-4,3.1-6.49,8.29-11.61,9.91-2.29,1.14-5.29,1.37-6.93,3.5a1.85,1.85,0,0,0-.17.89" transform="translate(-213.87 -27.88)"/><path class="cls-2" d="M326.54,178.87a28.68,28.68,0,0,1-2.17,4.17c-2.92-2.66-7.16-2.57-10.86-2.75-3.06-.16-6.39-.45-8.75-2.63s-4.52-4.69-7.3-6.34a18,18,0,0,1-7.14-3.29c-4.36-3.56-6.86-8.83-11.12-12.5a24.84,24.84,0,0,0-2.68-2.1c-.87.21-.47,2.08-1.53,1.13-.58-.41-2-.45-2.15.12,1.3,1.72,2.61,3.68,2.79,5.88-.89.09-2.47-.19-2.91.14a18.18,18.18,0,0,0,4.41,4.59c-.82.13-2.45.06-2.77.39,1.71,1.39,3.54,2.81,5.77,3.17.46.6-.67,1.77.28,2.28.55.22,2.36.6,1.11,1.22a1,1,0,0,0,.56,1.89c.69.35,2.25.44,2.37,1.05-.61.62-2.52,1.37-.9,2a11.23,11.23,0,0,0,5,1.45c-.87.73-1.94,1.15-2.84,1.84a68.65,68.65,0,0,0,12.82,5.38,40.8,40.8,0,0,0,5.32,1.47,43.61,43.61,0,0,1-15.13-4c-2.48-1.09-5-2.14-7.52-3.08,1.12-.58,2.41-.72,3.56-1.22-2.4-.48-5-.64-7.13-2,.32-.58,1.55-.6,2.23-.9,1.28-.31,2.07-.68.27-.79-1.81-.49-3.89-.27-5.49-1.37.1-.66,1.78-.43,2.46-.71a5.1,5.1,0,0,0,2.5-.85c-2.8-1.16-6.47-.34-8.67-2.81-.51-.94,1.57-.18,2.16-.34,1.5,0,3.12.48,4.55-.13-4.09-1.79-8.46-3.47-11.58-6.79-.35-.53-1.38-2-.55-2.17,2.42.32,4.18,3,6.77,2.56.34-.46-1.51-1.23-2-1.89a49.5,49.5,0,0,1-10.1-11c-.18-1.42,2-1.63,2.64-.54,2.89,2.79,5.5,6,9.11,7.94,1.28.62-.73-.73-1-1.22a64.45,64.45,0,0,1-8.82-12.5c-.42-.82-1.11-2.31.14-2.74a2.44,2.44,0,0,1,3.11,1.3c2.45,3.09,4.25,6.75,7.3,9.33-2.6-5-5.37-10.35-5.44-16.14.06-1.12.13-2.82,1.66-2.78,1.28-.19,1.08,1.44,1.5,2.23,1.26,4.26,1.81,8.87,4.34,12.63-.56-3.16-1.38-6.42-.83-9.63a1.24,1.24,0,0,1,2.09-.74c.63,1.53.76,3.43,1.33,5.07a51.22,51.22,0,0,0,20.05,27.45A52.81,52.81,0,0,0,324,178.72c.86.07,1.72.1,2.57.15" transform="translate(-213.87 -27.88)"/><circle class="cls-2" cx="100.62" cy="165.22" r="0.51"/><circle class="cls-3" cx="100.58" cy="165.13" r="0.21"/></g></svg>