<svg id="Layer_5" data-name="Layer 5" xmlns="http://www.w3.org/2000/svg" xmlns:xlink="http://www.w3.org/1999/xlink" viewBox="0 0 113.98 112.72"><defs><style>.cls-1{fill:none;}.cls-2{fill:#fff;}.cls-3{clip-path:url(#clip-path);}.cls-4,.cls-5{fill:#303030;}.cls-4{stroke:#fff;stroke-miterlimit:10;stroke-width:0.45px;}.cls-6{fill:#305f77;}</style><clipPath id="clip-path" transform="translate(-207.48 -23.69)"><circle class="cls-1" cx="267.13" cy="78.02" r="51.62"/></clipPath></defs><title>htp-1-ru-2</title><path class="cls-2" d="M267.13,131a53,53,0,1,1,53-53A53,53,0,0,1,267.13,131Z" transform="translate(-207.48 -23.69)"/><path class="cls-2" d="M267.13,26.4A51.62,51.62,0,1,1,215.51,78,51.62,51.62,0,0,1,267.13,26.4m0-2.71A54.33,54.33,0,1,0,321.46,78a54.39,54.39,0,0,0-54.32-54.32Z" transform="translate(-207.48 -23.69)"/><g class="cls-3"><polygon class="cls-4" points="109.67 72.73 109.67 68.5 101.19 68.5 101.19 72.73 94.57 72.73 94.57 91.99 111.21 91.99 111.21 72.73 109.67 72.73"/><polygon class="cls-4" points="13.54 70.82 13.54 65.23 0.23 65.23 0.23 72.73 5.9 72.73 5.9 91.99 23.61 91.99 23.61 70.82 13.54 70.82"/><rect class="cls-4" x="75.21" y="37.2" width="6.18" height="26.81"/><path class="cls-5" d="M229.33,129.86V64.52h15v65.34Zm6.27-2.49v-3.46h-3.47v3.46Zm6.28-6.27v-3.47h-3.47v3.47Zm-6.28,0v-3.47h-3.47v3.47Zm6.28-6.28v-3.47h-3.47v3.47Zm-6.28,0v-3.47h-3.47v3.47Zm6.28-6.28v-3.46h-3.47v3.46Zm-6.28,0v-3.46h-3.47v3.46Zm6.28-6.28V98.81h-3.47v3.46Zm-6.28,0V98.81h-3.47v3.46ZM241.88,96V92.53h-3.47V96Zm-6.28,0V92.53h-3.47V96Zm6.28-6.27V86.26h-3.47v3.47Zm-6.28,0V86.26h-3.47v3.47Zm6.28-6.28V80h-3.47v3.47Zm-6.28,0V80h-3.47v3.47Zm6.28-6.28V73.71h-3.47v3.46Zm-6.28,0V73.71h-3.47v3.46Zm6.28-6.27V67.43h-3.47V70.9Zm-6.28,0V67.43h-3.47V70.9Z" transform="translate(-207.48 -23.69)"/><path class="cls-2" d="M244.14,64.75v64.89H229.56V64.75h14.58m-6,6.38h3.92V67.21h-3.92v3.92m-6.28,0h3.92V67.21h-3.92v3.92m6.28,6.27h3.92V73.48h-3.92V77.4m-6.28,0h3.92V73.48h-3.92V77.4m6.28,6.28h3.92V79.76h-3.92v3.92m-6.28,0h3.92V79.76h-3.92v3.92m6.28,6.28h3.92V86h-3.92v3.92m-6.28,0h3.92V86h-3.92v3.92m6.28,6.27h3.92V92.31h-3.92v3.92m-6.28,0h3.92V92.31h-3.92v3.92m6.28,6.28h3.92V98.58h-3.92v3.92m-6.28,0h3.92V98.58h-3.92v3.92m6.28,6.28h3.92v-3.92h-3.92v3.92m-6.28,0h3.92v-3.92h-3.92v3.92m6.28,6.28h3.92v-3.92h-3.92v3.92m-6.28,0h3.92v-3.92h-3.92v3.92m6.28,6.28h3.92v-3.92h-3.92v3.92m-6.28,0h3.92v-3.92h-3.92v3.92m0,6.27h3.92v-3.92h-3.92v3.92M244.59,64.3H229.11v65.79h15.48V64.3Zm-6,3.36h3v3h-3v-3Zm-6.28,0h3v3h-3v-3Zm6.28,6.28h3v3h-3v-3Zm-6.28,0h3v3h-3v-3Zm6.28,6.28h3v3h-3v-3Zm-6.28,0h3v3h-3v-3Zm6.28,6.28h3v3h-3v-3Zm-6.28,0h3v3h-3v-3Zm6.28,6.28h3v3h-3v-3Zm-6.28,0h3v3h-3v-3ZM238.64,99h3v3h-3V99Zm-6.28,0h3v3h-3V99Zm6.28,6.28h3v3h-3v-3Zm-6.28,0h3v3h-3v-3Zm6.28,6.27h3v3h-3v-3Zm-6.28,0h3v3h-3v-3Zm6.28,6.28h3v3h-3v-3Zm-6.28,0h3v3h-3v-3Zm0,6.28h3v3h-3v-3Z" transform="translate(-207.48 -23.69)"/><path class="cls-5" d="M280.31,129.86V86.53h10.52V84.07h7.26v2.46h5v43.33Zm20.1-2.64v-3.76h-3.77v3.76Zm-6.75,0v-3.76h-3.76v3.76Zm6.75-6.75V116.7h-3.77v3.77Zm-6.75,0V116.7h-3.76v3.77Zm-6.75,0V116.7h-3.77v3.77Zm13.51-6.76v-3.76h-3.77v3.76Zm-6.75,0v-3.76h-3.76v3.76Zm-6.75,0v-3.76h-3.77v3.76ZM300.41,107v-3.76h-3.77V107Zm-6.75,0v-3.76h-3.76V107Zm-6.75,0v-3.76h-3.77V107Zm13.51-6.75V96.44h-3.77v3.77Zm-6.75,0V96.44h-3.76v3.77Zm-6.75,0V96.44h-3.77v3.77Zm13.51-6.75V89.68h-3.77v3.77Zm-6.75,0V89.68h-3.76v3.77Zm-6.75,0V89.68h-3.77v3.77Z" transform="translate(-207.48 -23.69)"/><path class="cls-2" d="M297.87,84.3v2.46h5v42.88H280.54V86.76h10.52V84.3h6.81m-1.45,9.38h4.22V89.46h-4.22v4.22m-6.75,0h4.21V89.46h-4.21v4.22m-6.76,0h4.22V89.46h-4.22v4.22m13.51,6.75h4.22V96.21h-4.22v4.22m-6.75,0h4.21V96.21h-4.21v4.22m-6.76,0h4.22V96.21h-4.22v4.22m13.51,6.75h4.22V103h-4.22v4.21m-6.75,0h4.21V103h-4.21v4.21m-6.76,0h4.22V103h-4.22v4.21m13.51,6.75h4.22v-4.21h-4.22v4.21m-6.75,0h4.21v-4.21h-4.21v4.21m-6.76,0h4.22v-4.21h-4.22v4.21m13.51,6.76h4.22v-4.22h-4.22v4.22m-6.75,0h4.21v-4.22h-4.21v4.22m-6.76,0h4.22v-4.22h-4.22v4.22m13.51,6.75h4.22v-4.21h-4.22v4.21m-6.75,0h4.21v-4.21h-4.21v4.21m8.66-43.6h-7.71v2.46H280.09v43.78h23.19V86.31h-5V83.84Zm-1.45,6.06h3.31v3.32h-3.31V89.91Zm-6.75,0h3.31v3.32h-3.31V89.91Zm-6.76,0h3.31v3.32h-3.31V89.91Zm13.51,6.76h3.31V100h-3.31V96.66Zm-6.75,0h3.31V100h-3.31V96.66Zm-6.76,0h3.31V100h-3.31V96.66Zm13.51,6.76h3.31v3.31h-3.31v-3.31Zm-6.75,0h3.31v3.31h-3.31v-3.31Zm-6.76,0h3.31v3.31h-3.31v-3.31Zm13.51,6.75h3.31v3.31h-3.31v-3.31Zm-6.75,0h3.31v3.31h-3.31v-3.31Zm-6.76,0h3.31v3.31h-3.31v-3.31Zm13.51,6.75h3.31v3.31h-3.31v-3.31Zm-6.75,0h3.31v3.31h-3.31v-3.31Zm-6.76,0h3.31v3.31h-3.31v-3.31Zm13.51,6.76h3.31V127h-3.31v-3.31Zm-6.75,0h3.31V127h-3.31v-3.31Z" transform="translate(-207.48 -23.69)"/><path class="cls-5" d="M238.47,129.86v-6.24h3.25V51.2h4.52V40.59h6V37h20.7v3.62h6V51.2h4.52v72.43h3.25v6.24ZM280,122.34v-3.89H269.84v3.89Zm0-7v-3.89H269.84v3.89Zm-12.36,0v-3.89H257.48v3.89Zm-12.36,0v-3.89H245.12v3.89Zm24.72-7v-3.89H269.84v3.89Zm-12.36,0v-3.89H257.48v3.89Zm-12.36,0v-3.89H245.12v3.89Zm24.72-7V97.55H269.84v3.89Zm-12.36,0V97.55H257.48v3.89Zm-12.36,0V97.55H245.12v3.89Zm24.72-7V90.58H269.84v3.89Zm-12.36,0V90.58H257.48v3.89Zm-12.36,0V90.58H245.12v3.89Zm24.72-7V83.62H269.84V87.5Zm-12.36,0V83.62H257.48V87.5Zm-12.36,0V83.62H245.12V87.5Zm24.72-7V76.65H269.84v3.89Zm-12.36,0V76.65H257.48v3.89Zm-12.36,0V76.65H245.12v3.89Zm24.72-7V69.68H269.84v3.89Zm-12.36,0V69.68H257.48v3.89Zm-12.36,0V69.68H245.12v3.89Zm24.72-7V62.71H269.84V66.6Zm-12.36,0V62.71H257.48V66.6Zm-12.36,0V62.71H245.12V66.6Zm24.72-7V55.74H269.84v3.89Zm-12.36,0V55.74H257.48v3.89Zm-12.36,0V55.74H245.12v3.89Zm17.18-8.43V48H252.66V51.2Zm0-5.37V42.66H252.66v3.16Z" transform="translate(-207.48 -23.69)"/><path class="cls-2" d="M272.68,37.2v3.62h6V51.42h4.52v72.43h3.25v5.79H238.69v-5.79h3.25V51.42h4.52V40.81h6V37.2h20.25m-20.25,8.85h20.25V42.44H252.43v3.62m0,5.37h20.25V47.8H252.43v3.62m17.18,8.43h10.61V55.52H269.61v4.34m-12.36,0h10.61V55.52H257.25v4.34m-12.36,0H255.5V55.52H244.9v4.34m24.72,7h10.61V62.49H269.61v4.34m-12.36,0h10.61V62.49H257.25v4.34m-12.36,0H255.5V62.49H244.9v4.34m24.72,7h10.61V69.46H269.61v4.34m-12.36,0h10.61V69.46H257.25v4.34m-12.36,0H255.5V69.46H244.9v4.34m24.72,7h10.61V76.42H269.61v4.34m-12.36,0h10.61V76.42H257.25v4.34m-12.36,0H255.5V76.42H244.9v4.34m24.72,7h10.61V83.39H269.61v4.34m-12.36,0h10.61V83.39H257.25v4.34m-12.36,0H255.5V83.39H244.9v4.34m24.72,7h10.61V90.36H269.61V94.7m-12.36,0h10.61V90.36H257.25V94.7m-12.36,0H255.5V90.36H244.9V94.7m24.72,7h10.61V97.33H269.61v4.34m-12.36,0h10.61V97.33H257.25v4.34m-12.36,0H255.5V97.33H244.9v4.34m24.72,7h10.61V104.3H269.61v4.34m-12.36,0h10.61V104.3H257.25v4.34m-12.36,0H255.5V104.3H244.9v4.34m24.72,7h10.61v-4.34H269.61v4.34m-12.36,0h10.61v-4.34H257.25v4.34m-12.36,0H255.5v-4.34H244.9v4.34m24.72,7h10.61v-4.34H269.61v4.34m3.52-85.82H252v3.62h-6V51H241.5V123.4h-3.25v6.69h48.63V123.4h-3.25V51H279.1V40.36h-6V36.75Zm-20.25,6.14h19.34V45.6H252.88V42.89Zm0,5.37h19.34V51H252.88V48.26ZM270.06,56h9.71V59.4h-9.71V56ZM257.7,56h9.7V59.4h-9.7V56Zm-12.36,0H255V59.4h-9.7V56Zm24.72,7h9.71v3.44h-9.71V62.94Zm-12.36,0h9.7v3.44h-9.7V62.94Zm-12.36,0H255v3.44h-9.7V62.94Zm24.72,7h9.71v3.43h-9.71V69.91Zm-12.36,0h9.7v3.43h-9.7V69.91Zm-12.36,0H255v3.43h-9.7V69.91Zm24.72,7h9.71v3.43h-9.71V76.88Zm-12.36,0h9.7v3.43h-9.7V76.88Zm-12.36,0H255v3.43h-9.7V76.88Zm24.72,7h9.71v3.44h-9.71V83.84Zm-12.36,0h9.7v3.44h-9.7V83.84Zm-12.36,0H255v3.44h-9.7V83.84Zm24.72,7h9.71v3.44h-9.71V90.81Zm-12.36,0h9.7v3.44h-9.7V90.81Zm-12.36,0H255v3.44h-9.7V90.81Zm24.72,7h9.71v3.44h-9.71V97.78Zm-12.36,0h9.7v3.44h-9.7V97.78Zm-12.36,0H255v3.44h-9.7V97.78Zm24.72,7h9.71v3.44h-9.71v-3.44Zm-12.36,0h9.7v3.44h-9.7v-3.44Zm-12.36,0H255v3.44h-9.7v-3.44Zm24.72,7h9.71v3.44h-9.71v-3.44Zm-12.36,0h9.7v3.44h-9.7v-3.44Zm-12.36,0H255v3.44h-9.7v-3.44Zm24.72,7h9.71v3.44h-9.71v-3.44Z" transform="translate(-207.48 -23.69)"/><polygon class="cls-4" points="28.8 95.67 27.85 103.87 33.37 103.87 31.9 96.22 34.27 90.28 33.37 88.09 31.9 92.2 29.46 88.09 26.38 89.11 28.8 95.67"/><path class="cls-4" d="M244.36,108.73a3.07,3.07,0,0,0-.82-1.64,3.06,3.06,0,0,0,.4-1.5,3.07,3.07,0,0,0-4.62-2.68,3.09,3.09,0,0,0-6.08.13h0a3.1,3.1,0,0,0-3.1,3.1c0,.1,0,.2,0,.3a3.07,3.07,0,0,0-.42,4,3.09,3.09,0,1,0,5,3.07,3.07,3.07,0,0,0,4.6-2,3.06,3.06,0,0,0,1.6.72,3.09,3.09,0,1,0,3.46-3.56Z" transform="translate(-207.48 -23.69)"/><polygon class="cls-4" points="90.48 98.49 91.43 106.69 85.92 106.69 87.38 99.03 85.02 93.09 85.92 90.9 87.38 95.02 89.82 90.9 92.9 91.92 90.48 98.49"/><path class="cls-4" d="M289.88,111.54a3.07,3.07,0,0,1,.82-1.64,3.08,3.08,0,0,1,4.22-4.18,3.09,3.09,0,0,1,6.09.14h0a3.1,3.1,0,0,1,3.1,3.1,2.49,2.49,0,0,1,0,.3,3.08,3.08,0,0,1,.42,4,3.09,3.09,0,1,1-5,3.07,3.06,3.06,0,0,1-1.58.45,3.09,3.09,0,0,1-3-2.4,3.06,3.06,0,0,1-1.6.72,3.09,3.09,0,1,1-3.46-3.56Z" transform="translate(-207.48 -23.69)"/><polygon class="cls-4" points="81.3 104.29 82.25 112.49 76.74 112.49 78.2 104.84 75.84 98.89 76.74 96.71 78.2 100.82 80.64 96.71 83.72 97.73 81.3 104.29"/><path class="cls-4" d="M280.7,117.35a3.09,3.09,0,0,1,.82-1.64,3.08,3.08,0,0,1,4.22-4.18,3.09,3.09,0,0,1,6.09.13h0a3.1,3.1,0,0,1,3.1,3.1,3,3,0,0,1,0,.3,3.07,3.07,0,0,1,.42,4,3.09,3.09,0,1,1-5,3.07,3.07,3.07,0,0,1-4.59-2,3.08,3.08,0,0,1-1.6.72,3.09,3.09,0,1,1-3.46-3.56Z" transform="translate(-207.48 -23.69)"/><rect class="cls-2" x="37.5" y="94.54" width="22.96" height="4.34"/><rect class="cls-6" x="38.37" y="95.41" width="21.21" height="2.59"/></g></svg>