<svg id="Layer_1" data-name="Layer 1" xmlns="http://www.w3.org/2000/svg" viewBox="0 0 244.67 63.47"><defs><style>.cls-1,.cls-3{fill:#fff;}.cls-2{fill:#305f77;}.cls-3,.cls-4{opacity:0.5;}</style></defs><title>htp-1-ru</title><path class="cls-1" d="M386.76,49V107H147.5V49H386.76m2.71-2.71H144.79v63.47H389.47V46.29Z" transform="translate(-144.79 -46.29)"/><rect class="cls-2" x="2.71" y="2.71" width="239.26" height="58.06"/><rect class="cls-3" x="201.94" y="7.1" width="35.63" height="35.62"/><g class="cls-4"><path class="cls-1" d="M155.51,99.13V86.54h5.35a9.15,9.15,0,0,1,2.93.34,2.89,2.89,0,0,1,1.46,1.21,3.63,3.63,0,0,1,.55,2,3.36,3.36,0,0,1-.83,2.34,4,4,0,0,1-2.49,1.16,5.93,5.93,0,0,1,1.36,1.06,14.31,14.31,0,0,1,1.45,2l1.54,2.46h-3L162,96.39a17.82,17.82,0,0,0-1.34-1.85,2,2,0,0,0-.76-.52,4.18,4.18,0,0,0-1.28-.14h-.52v5.26Zm2.54-7.27h1.88a9.69,9.69,0,0,0,2.29-.15,1.37,1.37,0,0,0,.71-.53,1.64,1.64,0,0,0,.26-.94,1.51,1.51,0,0,0-.34-1,1.56,1.56,0,0,0-1-.49q-.31,0-1.86,0h-2Z" transform="translate(-144.79 -46.29)"/><path class="cls-1" d="M167.54,99.13V86.54h9.34v2.13h-6.79v2.79h6.32v2.12h-6.32V97h7v2.12Z" transform="translate(-144.79 -46.29)"/><path class="cls-1" d="M177.68,95l2.47-.24a3,3,0,0,0,.91,1.83,2.74,2.74,0,0,0,1.84.58,2.84,2.84,0,0,0,1.85-.52,1.55,1.55,0,0,0,.62-1.22,1.15,1.15,0,0,0-.26-.76,2.09,2.09,0,0,0-.92-.54q-.45-.16-2-.55a6.91,6.91,0,0,1-2.87-1.25,3.28,3.28,0,0,1-1.16-2.54,3.23,3.23,0,0,1,.55-1.8,3.41,3.41,0,0,1,1.57-1.28,6.29,6.29,0,0,1,2.48-.44,5.32,5.32,0,0,1,3.57,1,3.67,3.67,0,0,1,1.26,2.77l-2.54.11a2.16,2.16,0,0,0-.7-1.39,2.56,2.56,0,0,0-1.61-.43,2.91,2.91,0,0,0-1.74.46.92.92,0,0,0-.4.78,1,1,0,0,0,.38.77,6.72,6.72,0,0,0,2.34.84,12.25,12.25,0,0,1,2.74.91,3.53,3.53,0,0,1,1.39,1.28,3.74,3.74,0,0,1,.5,2,3.7,3.7,0,0,1-.6,2,3.6,3.6,0,0,1-1.7,1.4,7.13,7.13,0,0,1-2.74.46,5.45,5.45,0,0,1-3.67-1.1A4.8,4.8,0,0,1,177.68,95Z" transform="translate(-144.79 -46.29)"/><path class="cls-1" d="M189.3,99.13V86.54h4.08a14.88,14.88,0,0,1,3,.19A3.3,3.3,0,0,1,198.22,88a3.91,3.91,0,0,1,.73,2.45,4.11,4.11,0,0,1-.42,1.95,3.47,3.47,0,0,1-1.07,1.24,3.67,3.67,0,0,1-1.32.6,14.51,14.51,0,0,1-2.64.18h-1.66v4.75Zm2.54-10.46v3.57h1.39a6.57,6.57,0,0,0,2-.2,1.67,1.67,0,0,0,.79-.62,1.69,1.69,0,0,0,.29-1,1.63,1.63,0,0,0-.4-1.13,1.75,1.75,0,0,0-1-.56,12.32,12.32,0,0,0-1.83-.09Z" transform="translate(-144.79 -46.29)"/><path class="cls-1" d="M200,86.54h2.54v6.82a14.25,14.25,0,0,0,.09,2.1,2,2,0,0,0,.78,1.24,2.7,2.7,0,0,0,1.68.47,2.56,2.56,0,0,0,1.63-.44,1.75,1.75,0,0,0,.66-1.09,14.19,14.19,0,0,0,.11-2.14v-7H210v6.61a17.06,17.06,0,0,1-.21,3.2,3.56,3.56,0,0,1-.76,1.58,3.84,3.84,0,0,1-1.48,1,6.42,6.42,0,0,1-2.42.38,7,7,0,0,1-2.74-.42A3.91,3.91,0,0,1,201,97.84a3.48,3.48,0,0,1-.71-1.4,15.31,15.31,0,0,1-.25-3.2Z" transform="translate(-144.79 -46.29)"/><path class="cls-1" d="M212,86.54h5a14.7,14.7,0,0,1,2.23.12,3.29,3.29,0,0,1,1.31.52,3.24,3.24,0,0,1,1,1.05,2.85,2.85,0,0,1,.39,1.47,3,3,0,0,1-1.77,2.73,3.3,3.3,0,0,1,1.77,1.14,3,3,0,0,1,.62,1.9,3.74,3.74,0,0,1-.4,1.67,3.36,3.36,0,0,1-1.09,1.3,3.59,3.59,0,0,1-1.71.6q-.64.07-3.07.09H212Zm2.54,2.1v2.91h1.67q1.49,0,1.85,0a1.68,1.68,0,0,0,1-.45,1.33,1.33,0,0,0,.37-1,1.38,1.38,0,0,0-.32-.95,1.46,1.46,0,0,0-1-.44q-.38,0-2.17,0Zm0,5V97h2.35a11.44,11.44,0,0,0,1.74-.08,1.57,1.57,0,0,0,.92-.5,1.55,1.55,0,0,0,.36-1.07,1.64,1.64,0,0,0-.28-1,1.55,1.55,0,0,0-.79-.58,8.63,8.63,0,0,0-2.25-.18Z" transform="translate(-144.79 -46.29)"/><path class="cls-1" d="M223.89,99.13V86.64h2.54V97h6.32v2.12Z" transform="translate(-144.79 -46.29)"/><path class="cls-1" d="M233.63,99.13V86.54h2.54V99.13Z" transform="translate(-144.79 -46.29)"/><path class="cls-1" d="M238,99.13V86.54h2.54v5.59l5.14-5.59h3.42l-4.74,4.91,5,7.69h-3.29l-3.46-5.91-2.06,2.11v3.8Z" transform="translate(-144.79 -46.29)"/><path class="cls-1" d="M262,99.13h-2.77l-1.1-2.86h-5l-1,2.86h-2.7l4.91-12.59H257Zm-4.68-5-1.74-4.67-1.7,4.67Z" transform="translate(-144.79 -46.29)"/></g><path class="cls-1" d="M155.6,73.11V57.05h5.2a18.86,18.86,0,0,1,3.86.24A4.21,4.21,0,0,1,167,58.86,5,5,0,0,1,167.9,62a5.24,5.24,0,0,1-.54,2.49A4.4,4.4,0,0,1,166,66.06a4.7,4.7,0,0,1-1.68.76,18.5,18.5,0,0,1-3.36.23h-2.11v6.06Zm3.24-13.34v4.56h1.77a8.38,8.38,0,0,0,2.56-.25,2.13,2.13,0,0,0,1-.79,2.15,2.15,0,0,0,.37-1.25,2.08,2.08,0,0,0-.51-1.45,2.25,2.25,0,0,0-1.3-.71,15.61,15.61,0,0,0-2.33-.11Z" transform="translate(-144.79 -46.29)"/><path class="cls-1" d="M169.71,73.11V57.05h11.91v2.72H173v3.56H181V66H173V70.4h9v2.71Z" transform="translate(-144.79 -46.29)"/><path class="cls-1" d="M194.14,67.2l3.14,1a7.05,7.05,0,0,1-2.4,3.9,7.57,7.57,0,0,1-9.52-.91,8.36,8.36,0,0,1-2.06-6A8.77,8.77,0,0,1,185.36,59a7.1,7.1,0,0,1,5.44-2.22,6.68,6.68,0,0,1,4.79,1.74,6.33,6.33,0,0,1,1.64,3l-3.21.77a3.32,3.32,0,0,0-3.38-2.69,3.65,3.65,0,0,0-2.9,1.28A6.28,6.28,0,0,0,186.63,65q0,3,1.1,4.34a3.56,3.56,0,0,0,2.85,1.29,3.25,3.25,0,0,0,2.22-.82A4.78,4.78,0,0,0,194.14,67.2Z" transform="translate(-144.79 -46.29)"/><path class="cls-1" d="M199.34,57.05h12.77V73.11h-3.24V59.75h-6.29V73.11h-3.24Z" transform="translate(-144.79 -46.29)"/><path class="cls-1" d="M213.45,57.05h3.63l3.75,8.33,3.2-8.33h3.38L222,69.25a11.94,11.94,0,0,1-1.81,3,3,3,0,0,1-2.38,1,10.52,10.52,0,0,1-2.25-.19V70.71q.69,0,1.25,0a2.51,2.51,0,0,0,1.62-.41,4.09,4.09,0,0,0,.94-1.77Z" transform="translate(-144.79 -46.29)"/><path class="cls-1" d="M228.74,57.05h12v2.69H232v3.72h4.34a8.68,8.68,0,0,1,3,.44,4.31,4.31,0,0,1,2,1.62,4.67,4.67,0,0,1,.84,2.77,4.62,4.62,0,0,1-.84,2.79,4.42,4.42,0,0,1-1.92,1.59,8.67,8.67,0,0,1-3.07.43h-7.58ZM232,70.41h3.15a10.37,10.37,0,0,0,2.13-.15,2,2,0,0,0,1.07-.67,1.91,1.91,0,0,0,.46-1.29,1.79,1.79,0,0,0-.79-1.63,5.29,5.29,0,0,0-2.71-.51H232Z" transform="translate(-144.79 -46.29)"/><path class="cls-1" d="M245.59,57.05h11.25V73.11h-3.24V59.77h-4.83v6.86a28.63,28.63,0,0,1-.2,4.11,2.94,2.94,0,0,1-1,1.82,3.61,3.61,0,0,1-2.38.65q-.57,0-2.07-.11V70.59h.72a2.38,2.38,0,0,0,1.37-.27q.35-.27.35-1.35V57.05Z" transform="translate(-144.79 -46.29)"/><path class="cls-1" d="M259.66,57.05h3V67.74l6.51-10.69h3.23V73.11h-3V62.63L262.9,73.11h-3.24Z" transform="translate(-144.79 -46.29)"/><path class="cls-1" d="M275.25,57.05h3.24v6.83a2.19,2.19,0,0,0,1.47-.56,11.4,11.4,0,0,0,1.18-2.5,6.75,6.75,0,0,1,2-3.24,6.32,6.32,0,0,1,3.25-.64h.47v2.4h-.46a3.24,3.24,0,0,0-1.46.25,1.86,1.86,0,0,0-.74.75,15.84,15.84,0,0,0-.84,2.07,7.38,7.38,0,0,1-.64,1.39,3.3,3.3,0,0,1-1.22,1.05,3.34,3.34,0,0,1,1.79,1.24,17,17,0,0,1,1.55,2.63l2.19,4.4h-3.81L281.33,69l-.19-.34q-.06-.09-.41-.76a4.8,4.8,0,0,0-1-1.48,2.1,2.1,0,0,0-1.22-.31v7h-3.24Z" transform="translate(-144.79 -46.29)"/><path class="cls-1" d="M303.74,73.11h-3.53l-1.4-3.65H292.4l-1.33,3.65h-3.44l6.25-16.06h3.43Zm-6-6.35-2.21-6-2.17,6Z" transform="translate(-144.79 -46.29)"/><g class="cls-4"><path class="cls-1" d="M267,80.55h3.37V84.6h.43v1.88H270V85.42H267v1.06h-.82V84.6h.41a4.53,4.53,0,0,0,.4-1.45,18.55,18.55,0,0,0,.1-2.09Zm.94.82a9.49,9.49,0,0,1-.4,3.24h1.85V81.36Z" transform="translate(-144.79 -46.29)"/></g><g class="cls-4"><path class="cls-1" d="M272.09,83l-.85-.15a1.33,1.33,0,0,1,.49-.76,1.8,1.8,0,0,1,1-.25,2.24,2.24,0,0,1,.93.15.94.94,0,0,1,.43.38,1.93,1.93,0,0,1,.12.84v1.09a3.75,3.75,0,0,0,0,.69,2,2,0,0,0,.17.47h-.92c0-.06-.05-.15-.09-.28l0-.11a1.67,1.67,0,0,1-.51.35,1.46,1.46,0,0,1-.58.12,1.2,1.2,0,0,1-.86-.3,1,1,0,0,1-.31-.75,1,1,0,0,1,.14-.53.94.94,0,0,1,.4-.36,3.17,3.17,0,0,1,.74-.22,5,5,0,0,0,.91-.23V83a.48.48,0,0,0-.13-.38.8.8,0,0,0-.5-.12.67.67,0,0,0-.39.1A.69.69,0,0,0,272.09,83Zm1.25.76c-.12,0-.31.09-.57.14a1.71,1.71,0,0,0-.51.16.39.39,0,0,0-.18.33.46.46,0,0,0,.15.34.51.51,0,0,0,.37.14.81.81,0,0,0,.48-.17.59.59,0,0,0,.22-.31,1.84,1.84,0,0,0,0-.46Z" transform="translate(-144.79 -46.29)"/></g><g class="cls-4"><path class="cls-1" d="M279.32,86.48h-.82V85.42h-.57V83.29H276v2.13h-1V80.55h1v1.92h1.93V80.55h1V84.6h.4Z" transform="translate(-144.79 -46.29)"/><path class="cls-1" d="M283.21,81.36h-2.32v1.31h1v.62h-1v2.13h-1V83.29h-.55v-.62h.55V80.55h3.3Z" transform="translate(-144.79 -46.29)"/><path class="cls-1" d="M283.59,80.55h1v1.95h1.32a1.8,1.8,0,0,1,1.35.44,1.46,1.46,0,0,1,.42,1,1.41,1.41,0,0,1-.25.85,1.3,1.3,0,0,1-.58.47,2.7,2.7,0,0,1-.94.13h-2.3Zm1,4.06h1a3.05,3.05,0,0,0,.64,0,.62.62,0,0,0,.32-.2.57.57,0,0,0,.14-.39.54.54,0,0,0-.24-.49,1.59,1.59,0,0,0-.82-.16h-1Z" transform="translate(-144.79 -46.29)"/><path class="cls-1" d="M288.17,85.42V80.55h1v4.87Z" transform="translate(-144.79 -46.29)"/><path class="cls-1" d="M290.28,80.55h3.41v4.87h-1v-4h-1.47v2.08a8.71,8.71,0,0,1-.06,1.25.89.89,0,0,1-.29.55,1.1,1.1,0,0,1-.72.2l-.63,0v-.76h.22a.72.72,0,0,0,.42-.08c.07-.06.11-.19.11-.41V80.55Z" transform="translate(-144.79 -46.29)"/><path class="cls-1" d="M294.54,80.55h1v1.95h1.32a2.54,2.54,0,0,1,.89.14,1.32,1.32,0,0,1,.62.51,1.44,1.44,0,0,1,.25.84,1.42,1.42,0,0,1-.26.85,1.27,1.27,0,0,1-.58.47,2.86,2.86,0,0,1-.93.12h-2.3Zm1,4.06h1a3.05,3.05,0,0,0,.64,0,.63.63,0,0,0,.32-.2.57.57,0,0,0,.14-.39.56.56,0,0,0-.23-.49,1.53,1.53,0,0,0-.83-.16h-1Zm3.65-4.06h1v4.87h-1Z" transform="translate(-144.79 -46.29)"/></g><g class="cls-4"><path class="cls-1" d="M265.35,87.58h3.88v4.87h-1V88.4h-1.91v4.06h-1Z" transform="translate(-144.79 -46.29)"/><path class="cls-1" d="M269.88,92.45V87.58h1.58a5.75,5.75,0,0,1,1.17.07,1.28,1.28,0,0,1,.7.48,1.51,1.51,0,0,1,.28.95,1.59,1.59,0,0,1-.16.75,1.35,1.35,0,0,1-.41.48,1.42,1.42,0,0,1-.51.23,5.57,5.57,0,0,1-1,.07h-.64v1.84Zm1-4v1.38h.54a2.55,2.55,0,0,0,.78-.08.64.64,0,0,0,.31-.24.65.65,0,0,0,.11-.38.63.63,0,0,0-.16-.44.68.68,0,0,0-.4-.22,4.69,4.69,0,0,0-.71,0Z" transform="translate(-144.79 -46.29)"/><path class="cls-1" d="M273.85,90a3.1,3.1,0,0,1,.22-1.25,2.3,2.3,0,0,1,.45-.67,1.9,1.9,0,0,1,.63-.44,2.67,2.67,0,0,1,1.05-.19,2.29,2.29,0,0,1,1.72.67,3,3,0,0,1,0,3.71,2.56,2.56,0,0,1-3.44,0A2.51,2.51,0,0,1,273.85,90Zm1,0a1.83,1.83,0,0,0,.38,1.25,1.25,1.25,0,0,0,1,.43,1.23,1.23,0,0,0,1-.42,1.86,1.86,0,0,0,.38-1.27,1.83,1.83,0,0,0-.37-1.25,1.36,1.36,0,0,0-2,0A1.84,1.84,0,0,0,274.87,90Z" transform="translate(-144.79 -46.29)"/><path class="cls-1" d="M282.13,90.66l1,.3a2.15,2.15,0,0,1-.73,1.18,2.3,2.3,0,0,1-2.89-.28,2.54,2.54,0,0,1-.62-1.81,2.66,2.66,0,0,1,.63-1.89,2.15,2.15,0,0,1,1.65-.67,2,2,0,0,1,1.45.53,1.92,1.92,0,0,1,.5.9l-1,.23a1,1,0,0,0-1-.82,1.11,1.11,0,0,0-.88.39,1.91,1.91,0,0,0-.34,1.26,2,2,0,0,0,.33,1.32,1.08,1.08,0,0,0,.86.39,1,1,0,0,0,.67-.25A1.45,1.45,0,0,0,282.13,90.66Z" transform="translate(-144.79 -46.29)"/><path class="cls-1" d="M283.5,87.58h3.88v4.87h-1V88.4h-1.91v4.06h-1Z" transform="translate(-144.79 -46.29)"/></g><g class="cls-4"><path class="cls-1" d="M288.05,92.45V87.58h3.61v.82H289v1.08h2.45v.82H289v1.33h2.72v.82Z" transform="translate(-144.79 -46.29)"/><path class="cls-1" d="M292.31,92.45V87.58h1v2.16l2-2.16h1.32l-1.84,1.9,1.94,3h-1.27l-1.34-2.29-.8.81v1.47Z" transform="translate(-144.79 -46.29)"/><path class="cls-1" d="M298,92.45v-4h-1.45v-.82h3.87v.82H299v4Z" transform="translate(-144.79 -46.29)"/></g><g class="cls-4"><path class="cls-1" d="M279.21,99.49h-1.07l-.43-1.11h-1.95l-.4,1.11h-1l1.9-4.87h1Zm-1.81-1.93-.67-1.81-.66,1.81Z" transform="translate(-144.79 -46.29)"/><path class="cls-1" d="M280.26,99.49l-1.74-4.87h1.07l1.23,3.61L282,94.61h1l-1.75,4.88Z" transform="translate(-144.79 -46.29)"/><path class="cls-1" d="M283.26,99.49V94.61h3.61v.82h-2.63v1.08h2.45v.82h-2.45v1.33H287v.82Z" transform="translate(-144.79 -46.29)"/><path class="cls-1" d="M287.48,99.49V94.61h1l2,3.26V94.61h.91v4.88h-1l-2-3.18v3.18Z" transform="translate(-144.79 -46.29)"/><path class="cls-1" d="M292,94.61h1v2.64a5.46,5.46,0,0,0,0,.81.79.79,0,0,0,.3.48,1,1,0,0,0,.65.18,1,1,0,0,0,.63-.17.67.67,0,0,0,.26-.42,5.39,5.39,0,0,0,0-.83v-2.7h1v2.56a6.64,6.64,0,0,1-.08,1.24,1.37,1.37,0,0,1-.29.61,1.49,1.49,0,0,1-.57.4,2.49,2.49,0,0,1-.94.15,2.7,2.7,0,0,1-1.06-.16,1.51,1.51,0,0,1-.57-.42,1.35,1.35,0,0,1-.28-.54,5.91,5.91,0,0,1-.1-1.24Z" transform="translate(-144.79 -46.29)"/><path class="cls-1" d="M296.63,99.49V94.61h3.61v.82h-2.63v1.08h2.45v.82h-2.45v1.33h2.72v.82Z" transform="translate(-144.79 -46.29)"/></g><path class="cls-1" d="M312.54,87.65l7.23-.88A6.84,6.84,0,0,0,321.64,91a5.27,5.27,0,0,0,7.57-.29A6.81,6.81,0,0,0,330.79,86a6.35,6.35,0,0,0-1.52-4.47,4.83,4.83,0,0,0-3.7-1.65,13,13,0,0,0-3.43.56l.82-6.09A6.55,6.55,0,0,0,327.6,73a4.69,4.69,0,0,0,1.6-3.71A4,4,0,0,0,324.91,65a4.51,4.51,0,0,0-3.27,1.33A6.25,6.25,0,0,0,320,70.21L313.1,69a15.38,15.38,0,0,1,2.17-5.65,9.78,9.78,0,0,1,4-3.32,13.58,13.58,0,0,1,5.81-1.21A11.59,11.59,0,0,1,334,62.36a9.16,9.16,0,0,1,2.74,6.49q0,5.13-5.61,8.19a9.08,9.08,0,0,1,5.36,3.22,9.34,9.34,0,0,1,2,6A11.71,11.71,0,0,1,334.7,95a14,14,0,0,1-18.11.57A12,12,0,0,1,312.54,87.65Z" transform="translate(-144.79 -46.29)"/><g class="cls-4"><rect class="cls-1" x="201.94" y="46.25" width="35.63" height="10.12"/></g><g class="cls-4"><path d="M348.49,100.08v-.87L351,96.1h-2.24v-.81h3.51V96l-2.63,3.24h2.73v.81Z" transform="translate(-144.79 -46.29)"/><path d="M355,100.08h-.92V96.62a3.19,3.19,0,0,1-1.19.7v-.84a2.64,2.64,0,0,0,.78-.45,1.7,1.7,0,0,0,.58-.77H355Z" transform="translate(-144.79 -46.29)"/><path d="M357.77,95.26a1.31,1.31,0,0,1,1.09.5,4.31,4.31,0,0,1,0,3.91,1.31,1.31,0,0,1-1.09.49,1.37,1.37,0,0,1-1.13-.54,4.39,4.39,0,0,1,0-3.87A1.31,1.31,0,0,1,357.77,95.26Zm0,.76a.46.46,0,0,0-.3.11.72.72,0,0,0-.2.38,7.82,7.82,0,0,0,0,2.36.82.82,0,0,0,.21.42.47.47,0,0,0,.59,0,.7.7,0,0,0,.2-.38,7.8,7.8,0,0,0,0-2.36.83.83,0,0,0-.21-.42A.45.45,0,0,0,357.77,96Z" transform="translate(-144.79 -46.29)"/><path d="M360,100.08v-4.8h1v1.89h1.9V95.28h1v4.8h-1V98H361v2.1Z" transform="translate(-144.79 -46.29)"/><path d="M364.67,95.28h1.92a5.61,5.61,0,0,1,.85,0,1.24,1.24,0,0,1,.5.2,1.22,1.22,0,0,1,.37.4,1.09,1.09,0,0,1,.15.56,1.14,1.14,0,0,1-.67,1,1.27,1.27,0,0,1,.67.44,1.16,1.16,0,0,1,.24.72,1.43,1.43,0,0,1-.15.64,1.28,1.28,0,0,1-.42.49,1.39,1.39,0,0,1-.65.23c-.16,0-.55,0-1.17,0h-1.63Zm1,.8v1.11h.64l.7,0a.63.63,0,0,0,.39-.17.5.5,0,0,0,.14-.37.53.53,0,0,0-.12-.36.56.56,0,0,0-.37-.17l-.83,0Zm0,1.91v1.28h.9a4.41,4.41,0,0,0,.67,0,.57.57,0,0,0,.49-.6.62.62,0,0,0-.11-.37.59.59,0,0,0-.3-.22,3.34,3.34,0,0,0-.86-.07Z" transform="translate(-144.79 -46.29)"/><path d="M369.16,98.85l.92-.09a.79.79,0,0,0,.23.49.63.63,0,0,0,.45.18.62.62,0,0,0,.49-.23,1.06,1.06,0,0,0,.2-.71,1,1,0,0,0-.2-.66.66.66,0,0,0-.52-.22A.94.94,0,0,0,370,98l-.75-.11.47-2.5h2.43v.86h-1.74l-.14.82a1.41,1.41,0,0,1,.63-.15,1.38,1.38,0,0,1,1,.45,1.6,1.6,0,0,1,.43,1.16,1.73,1.73,0,0,1-.34,1.06,1.52,1.52,0,0,1-1.3.64,1.62,1.62,0,0,1-1.08-.36A1.47,1.47,0,0,1,369.16,98.85Z" transform="translate(-144.79 -46.29)"/><path d="M372.92,95.28h1.92a5.61,5.61,0,0,1,.85,0,1.24,1.24,0,0,1,.5.2,1.22,1.22,0,0,1,.37.4,1.09,1.09,0,0,1,.15.56,1.14,1.14,0,0,1-.67,1,1.27,1.27,0,0,1,.67.44,1.16,1.16,0,0,1,.24.72,1.43,1.43,0,0,1-.15.64,1.28,1.28,0,0,1-.42.49,1.39,1.39,0,0,1-.65.23c-.16,0-.55,0-1.17,0h-1.63Zm1,.8v1.11h.64l.7,0a.63.63,0,0,0,.39-.17.5.5,0,0,0,.14-.37.53.53,0,0,0-.12-.36.56.56,0,0,0-.37-.17l-.83,0Zm0,1.91v1.28h.9a4.41,4.41,0,0,0,.67,0,.57.57,0,0,0,.49-.6.62.62,0,0,0-.11-.37.59.59,0,0,0-.3-.22,3.34,3.34,0,0,0-.86-.07Z" transform="translate(-144.79 -46.29)"/><path d="M380.51,99.23v.85h-3.23a2.22,2.22,0,0,1,.31-.92,6.1,6.1,0,0,1,1-1.15,6.45,6.45,0,0,0,.76-.79,1,1,0,0,0,.19-.56.65.65,0,0,0-.17-.47A.62.62,0,0,0,379,96a.61.61,0,0,0-.46.17.89.89,0,0,0-.2.58l-.92-.09a1.51,1.51,0,0,1,.51-1.09,1.73,1.73,0,0,1,1.08-.33,1.56,1.56,0,0,1,1.12.38,1.26,1.26,0,0,1,.41,1,1.66,1.66,0,0,1-.12.62,2.53,2.53,0,0,1-.37.62,5.8,5.8,0,0,1-.6.61c-.29.27-.47.44-.55.53a1.58,1.58,0,0,0-.19.26Z" transform="translate(-144.79 -46.29)"/></g><polygon class="cls-4" points="209.36 14.53 209.36 13.04 209.36 11.55 207.88 11.55 206.39 11.55 206.39 13.04 206.39 14.53 207.88 14.53 209.36 14.53"/><rect class="cls-4" x="233.11" y="35.32" width="1.49" height="1.48"/><polygon class="cls-4" points="215.3 13.04 215.3 14.53 216.78 14.53 216.78 16.01 218.26 16.01 218.26 14.53 218.26 13.04 216.78 13.04 215.3 13.04"/><rect class="cls-4" x="207.88" y="18.98" width="1.48" height="1.48"/><polygon class="cls-4" points="224.21 16.01 224.21 14.53 224.21 13.04 224.21 11.57 225.68 11.57 225.68 10.08 224.21 10.08 224.21 11.55 222.72 11.55 222.72 10.08 224.21 10.08 224.21 8.58 222.72 8.58 221.24 8.58 221.24 10.08 221.24 11.55 221.24 13.04 222.72 13.04 222.72 14.53 221.24 14.53 221.24 16.01 222.72 16.01 224.21 16.01"/><rect class="cls-4" x="216.78" y="33.82" width="1.48" height="1.48"/><rect class="cls-4" x="209.36" y="21.94" width="1.49" height="1.5"/><rect class="cls-4" x="209.36" y="26.39" width="1.49" height="1.5"/><polygon class="cls-4" points="218.26 13.04 219.75 13.04 219.75 11.55 219.75 10.08 218.26 10.08 218.26 11.55 218.26 13.04"/><rect class="cls-4" x="213.81" y="11.56" width="1.49" height="1.48"/><rect class="cls-4" x="206.39" y="26.39" width="1.49" height="1.5"/><polygon class="cls-4" points="207.88 21.94 206.39 21.94 206.39 23.44 206.39 24.92 207.88 24.92 209.36 24.92 209.36 23.44 207.88 23.44 207.88 21.94"/><polygon class="cls-4" points="230.14 18.98 228.66 18.98 228.66 20.46 230.14 20.46 231.63 20.46 231.63 18.98 230.14 18.98"/><rect class="cls-4" x="218.27" y="35.3" width="1.48" height="1.5"/><rect class="cls-4" x="215.3" y="35.3" width="1.49" height="1.5"/><polygon class="cls-4" points="207.88 29.37 206.39 29.37 206.39 30.85 207.88 30.85 209.36 30.85 210.84 30.85 210.84 29.37 209.36 29.37 207.88 29.37"/><polygon class="cls-4" points="228.66 41.25 230.14 41.25 230.14 39.77 228.66 39.77 227.18 39.77 227.18 41.25 228.66 41.25"/><polygon class="cls-4" points="215.3 29.37 213.81 29.37 213.81 27.89 212.33 27.89 210.84 27.89 210.84 29.37 212.33 29.37 212.33 30.85 213.81 30.85 215.3 30.85 216.78 30.85 216.78 29.37 215.3 29.37"/><rect class="cls-4" x="218.27" y="18.98" width="1.48" height="1.48"/><polygon class="cls-4" points="222.72 20.46 224.21 20.46 224.21 18.98 222.72 18.98 221.24 18.98 221.24 20.46 222.72 20.46"/><polygon class="cls-4" points="216.78 20.46 216.78 18.98 215.3 18.98 215.3 17.49 213.81 17.49 213.81 18.98 213.81 20.46 212.33 20.46 212.33 18.98 210.84 18.98 210.84 20.46 210.84 21.94 212.33 21.94 213.81 21.94 215.3 21.94 215.3 20.46 216.78 20.46"/><polygon class="cls-4" points="221.24 17.49 221.24 16.01 219.75 16.01 219.75 17.49 219.75 18.98 221.24 18.98 221.24 17.49"/><rect class="cls-4" x="219.75" y="29.37" width="1.49" height="1.48"/><polygon class="cls-4" points="221.24 24.92 222.72 24.92 222.72 23.44 224.21 23.44 224.21 24.92 225.69 24.92 227.17 24.92 227.17 23.44 225.69 23.44 225.69 21.94 224.21 21.94 222.72 21.94 221.24 21.94 221.24 23.44 221.24 24.92"/><polygon class="cls-4" points="219.75 26.39 221.24 26.39 221.24 24.92 219.75 24.92 219.75 23.44 219.75 21.94 218.26 21.94 216.78 21.94 215.3 21.94 215.3 23.44 215.3 24.92 216.78 24.92 216.78 23.44 218.26 23.44 218.26 24.92 216.78 24.92 216.78 26.39 218.26 26.39 219.75 26.39"/><path class="cls-4" d="M380.87,74.17V72.68h-3v1.49h-1.48v1.49h0v3h-1.49v-3h0V74.17h0V72.68h-4.45v1.5H369v-1.5h-3v1.5h1.48v3H366v1.5h-3v1.48h1.48v1.48H366V80.11h1.48V81.6H369v1.48h-1.48v1.49h3V83.08h0V81.6H372v1.48h0v1.48h-1.49v1.5H372V84.56h1.48V83.08h0V81.6h3V80.11h1.49V78.63h1.49V77.15H377.9V75.66h0V74.17h1.48v1.48h1.48V74.17ZM369,75.66h4.46v4.45H369Z" transform="translate(-144.79 -46.29)"/><rect class="cls-4" x="216.78" y="27.89" width="1.48" height="1.48"/><rect class="cls-4" x="219.75" y="20.46" width="1.49" height="1.48"/><rect class="cls-4" x="215.3" y="26.39" width="1.49" height="1.5"/><rect class="cls-4" x="213.81" y="32.34" width="1.49" height="1.48"/><rect class="cls-4" x="227.17" y="21.94" width="1.49" height="1.5"/><rect class="cls-4" x="216.78" y="30.85" width="1.48" height="1.5"/><polygon class="cls-4" points="213.81 26.39 213.81 24.92 213.81 23.44 212.33 23.44 212.33 24.92 210.84 24.92 210.84 26.39 212.33 26.39 213.81 26.39"/><rect class="cls-4" x="225.69" y="18.98" width="1.48" height="1.48"/><rect class="cls-4" x="231.63" y="39.77" width="1.48" height="1.48"/><polygon class="cls-4" points="236.08 20.46 236.08 18.98 234.6 18.98 233.11 18.98 233.11 20.46 234.6 20.46 236.08 20.46"/><polygon class="cls-4" points="236.08 24.92 236.08 23.44 234.6 23.44 233.11 23.44 233.11 24.92 234.6 24.92 236.08 24.92"/><rect class="cls-4" x="203.43" y="29.37" width="1.48" height="1.48"/><rect class="cls-4" x="230.13" y="36.79" width="1.5" height="1.49"/><rect class="cls-4" x="203.43" y="26.39" width="1.48" height="1.5"/><rect class="cls-4" x="215.3" y="10.08" width="1.49" height="1.48"/><path class="cls-4" d="M351.19,63.77h5.94V54.87h-8.91v8.91h3Zm-1.49-3V56.36h5.94v5.93H349.7Z" transform="translate(-144.79 -46.29)"/><polygon class="cls-4" points="206.39 20.46 206.39 18.98 204.9 18.98 203.43 18.98 203.43 20.46 204.9 20.46 206.39 20.46"/><rect class="cls-4" x="219.75" y="36.8" width="1.49" height="1.48"/><rect class="cls-4" x="231.62" y="20.46" width="1.49" height="1.48"/><polygon class="cls-4" points="233.11 26.39 233.11 24.92 231.63 24.92 231.63 23.44 230.14 23.44 230.14 24.92 230.14 26.39 231.63 26.39 233.11 26.39"/><rect class="cls-4" x="216.78" y="8.58" width="1.48" height="1.5"/><rect class="cls-4" x="219.76" y="13.03" width="1.48" height="1.5"/><rect class="cls-4" x="224.2" y="16.01" width="1.48" height="1.5"/><polygon class="cls-4" points="204.9 23.44 204.9 21.94 203.43 21.94 203.43 23.44 203.43 24.92 204.9 24.92 204.9 23.44"/><polygon class="cls-4" points="206.39 35.32 206.39 36.8 206.39 38.29 207.88 38.29 209.36 38.29 209.36 36.8 209.36 35.32 207.88 35.32 206.39 35.32"/><path class="cls-4" d="M354.15,78.63h-5.93v8.91h8.9V78.63h-3Zm1.49,3v4.46H349.7V80.12h5.94Z" transform="translate(-144.79 -46.29)"/><polygon class="cls-4" points="233.1 14.53 233.1 13.04 233.1 11.55 231.63 11.55 230.13 11.55 230.13 13.04 230.13 14.53 231.63 14.53 233.1 14.53"/><path class="cls-4" d="M374.93,63.77h5.94V54.87H372v8.91h3Zm1.49-7.41h3v5.93h-5.94V56.36" transform="translate(-144.79 -46.29)"/><polygon class="cls-4" points="216.78 38.27 216.78 39.75 218.26 39.75 218.26 41.25 219.75 41.25 221.24 41.25 221.24 39.75 219.75 39.75 219.75 38.27 218.26 38.27 216.78 38.27"/><rect class="cls-4" x="213.81" y="38.27" width="1.49" height="1.48"/><rect class="cls-4" x="224.2" y="39.77" width="1.49" height="1.48"/><polygon class="cls-4" points="233.11 38.28 233.11 39.77 233.11 39.77 234.59 39.77 234.59 39.77 234.6 39.77 234.6 41.25 236.08 41.25 236.08 39.77 236.08 38.28 236.08 38.28 234.59 38.28 233.11 38.28"/><rect class="cls-4" x="225.69" y="30.86" width="1.49" height="1.48"/></svg>