<svg id="htp-2-ru" xmlns="http://www.w3.org/2000/svg" xmlns:xlink="http://www.w3.org/1999/xlink" viewBox="0 0 238.42 128.02"><defs><style>.cls-1{fill:#448afe;}.cls-2{fill:#fff;}.cls-3{fill:url(#linear-gradient);}.cls-4{fill:#fefefe;}.cls-5{fill:#e6e6e6;}.cls-6{fill:#666;}.cls-7,.cls-8{fill:none;}.cls-7{stroke:#fff;stroke-miterlimit:10;stroke-width:3.21px;}.cls-8{stroke:#448afe;stroke-linecap:round;stroke-linejoin:round;stroke-width:1.06px;}.cls-9{fill:url(#linear-gradient-2);}</style><linearGradient id="linear-gradient" x1="168.83" y1="34.43" x2="168.83" y2="39.93" gradientUnits="userSpaceOnUse"><stop offset="0" stop-color="#649efe"/><stop offset="1" stop-color="#448afe"/></linearGradient><linearGradient id="linear-gradient-2" x1="168.84" y1="34.43" x2="168.84" y2="39.93" xlink:href="#linear-gradient"/></defs><title>htp-2-ru</title><rect class="cls-1" width="238.42" height="41.82" rx="4.76" ry="4.76"/><rect class="cls-2" x="6.15" y="6.15" width="29.52" height="29.52" rx="3.58" ry="3.58"/><path class="cls-3" d="M168.83,33.74a9.45,9.45,0,0,0-9.3,7.79,8.88,8.88,0,0,0-.13,1.14c0,.16,0,.31,0,.47v.05a9.42,9.42,0,0,0,3,6.89V54l.09-.05,3.15-1.9a9.45,9.45,0,1,0,3.22-18.33Zm5.74,7.1-2.19,2.4L169.88,46c0,.05-.07.06-.12,0l-2.36-2.37a.09.09,0,0,0-.12,0L163,46l-.1.06h0l.32-.36,2.48-2.72,2.07-2.28s.06,0,.11,0L170.26,43a.09.09,0,0,0,.13,0l4.24-2.36.11-.06v0Z" transform="translate(-147.92 -22.33)"/><path class="cls-4" d="M174.63,40.69l-4.24,2.36a.09.09,0,0,1-.12,0l-2.37-2.38s-.06,0-.11,0l-2.07,2.28-2.48,2.72-.32.36h0L163,46l4.25-2.36a.09.09,0,0,1,.13,0L169.76,46c.05.05.07,0,.12,0l2.5-2.76,2.19-2.4.17-.2v0Z" transform="translate(-147.92 -22.33)"/><path class="cls-5" d="M365.43,28.48H224.37a14.76,14.76,0,1,0,0,29.52H365.43a14.76,14.76,0,0,0,0-29.52Z" transform="translate(-147.92 -22.33)"/><path class="cls-6" d="M232.64,48.72l-3.36-3.36a.44.44,0,0,0-.62,0l-.06.06-1.19-1.19.11-.15a4.88,4.88,0,0,0,1-3.66,5,5,0,0,0-3.89-4.23l-.62-.11h-.91l-.58.11a5,5,0,0,0-3.91,4.22l0,.23v.88l0,.13a9.08,9.08,0,0,0,.19.9,5,5,0,0,0,7.63,2.63l.23-.16,1.2,1.19-.08.08a.44.44,0,0,0,0,.62l3.36,3.36a.43.43,0,0,0,.61,0l.92-.92A.44.44,0,0,0,232.64,48.72ZM223.54,45a3.94,3.94,0,1,1,3.95-3.95A3.94,3.94,0,0,1,223.54,45Z" transform="translate(-147.92 -22.33)"/><path class="cls-6" d="M248.72,38.68l-.79.79a3.54,3.54,0,0,0-2.66-1c-1.54,0-2.42.85-2.42,2.13a1.69,1.69,0,0,0,.51,1.33,3.08,3.08,0,0,0,1.49.59l1.33.21a3.43,3.43,0,0,1,2.07.82,2.87,2.87,0,0,1,1,2.25c0,2-1.56,3.24-3.95,3.24a4.94,4.94,0,0,1-3.9-1.51l.82-.82A3.91,3.91,0,0,0,245.31,48c1.68,0,2.71-.77,2.71-2.12a1.8,1.8,0,0,0-.56-1.43,2.46,2.46,0,0,0-1.49-.56l-1.33-.19a4,4,0,0,1-2.08-.87,2.72,2.72,0,0,1-.88-2.15c0-1.94,1.4-3.21,3.66-3.21A4.65,4.65,0,0,1,248.72,38.68Z" transform="translate(-147.92 -22.33)"/><path class="cls-6" d="M257,43.59v5.36h-1.15v-.75a3.63,3.63,0,0,1-4.51.13,2.2,2.2,0,0,1-.6-1.6c0-1.39,1-2.28,2.74-2.28h2.36v-.75c0-1.14-.56-1.73-2-1.73a2.11,2.11,0,0,0-2,.91l-.79-.72A3,3,0,0,1,253.89,41C256,41,257,41.89,257,43.59Zm-3.35,1.72q-1.78,0-1.78,1.4c0,.91.56,1.35,1.83,1.35a2.36,2.36,0,0,0,1.75-.53,1.81,1.81,0,0,0,.4-1.36V45.3Z" transform="translate(-147.92 -22.33)"/><path class="cls-6" d="M260.84,46.8c0,.77.25,1.16,1.06,1.16h.63v1h-.84a1.88,1.88,0,0,1-2-2.1V37.53h1.16Z" transform="translate(-147.92 -22.33)"/><path class="cls-6" d="M270.38,44.79v.51h-5.32c0,1.73.8,2.73,2.32,2.73a2.59,2.59,0,0,0,2.07-.9l.79.69A3.64,3.64,0,0,1,267.35,49c-2.1,0-3.45-1.25-3.45-4,0-2.57,1.23-4,3.24-4S270.38,42.42,270.38,44.79Zm-5.08-1.67a3,3,0,0,0-.24,1.32h4.19a3.27,3.27,0,0,0-.26-1.32,2,2,0,0,0-3.69,0Z" transform="translate(-147.92 -22.33)"/><path class="cls-6" d="M283.13,41.7a2.93,2.93,0,0,1,.85,2.2v5.05h-1.16V44.09a2,2,0,1,0-3.91-.13v5h-1.15V44.09a1.84,1.84,0,0,0-1.94-2.1,1.87,1.87,0,0,0-2,2.1v4.86h-1.16V41.05h1.16v.87a2.88,2.88,0,0,1,2.23-1,2.6,2.6,0,0,1,2.42,1.31,3,3,0,0,1,2.6-1.31A2.87,2.87,0,0,1,283.13,41.7Z" transform="translate(-147.92 -22.33)"/><path class="cls-6" d="M294.81,48.95h-1.3l-.92-2.58h-5l-.92,2.58h-1.3l4.2-11.42h1ZM288,45.3h4.25l-2.12-6Z" transform="translate(-147.92 -22.33)"/><path class="cls-6" d="M301.64,41.81l-.75.75a3.38,3.38,0,0,0-2.1-.63c-1.15,0-1.76.48-1.76,1.3s.43,1.06,1.41,1.15l1.23.11c1.38.13,2.33.64,2.33,2.13S300.71,49,298.78,49a4.31,4.31,0,0,1-3.24-1.14l.77-.77a3.27,3.27,0,0,0,2.46.92c1.32,0,2.1-.47,2.1-1.4,0-.71-.38-1.08-1.31-1.16l-1.3-.11c-1.54-.13-2.36-.8-2.36-2.12S297.1,41,298.8,41A4.46,4.46,0,0,1,301.64,41.81Z" transform="translate(-147.92 -22.33)"/><path class="cls-6" d="M305.46,41.05h1.68v.88h-1.68V46.8c0,.74.34,1.16,1.07,1.16h.61v1h-.82a1.94,1.94,0,0,1-2-2.12V41.94h-1v-.88h1V38.63h1.16Z" transform="translate(-147.92 -22.33)"/><path class="cls-6" d="M314.92,43.59v5.36h-1.15v-.75a3.63,3.63,0,0,1-4.51.13,2.2,2.2,0,0,1-.59-1.6c0-1.39,1-2.28,2.74-2.28h2.36v-.75c0-1.14-.56-1.73-2-1.73a2.11,2.11,0,0,0-2,.91l-.79-.72A3,3,0,0,1,311.76,41C313.89,41,314.92,41.89,314.92,43.59Zm-3.35,1.72q-1.78,0-1.78,1.4c0,.91.56,1.35,1.83,1.35a2.36,2.36,0,0,0,1.75-.53,1.82,1.82,0,0,0,.4-1.36V45.3Z" transform="translate(-147.92 -22.33)"/><path class="cls-6" d="M323,41.7a3,3,0,0,1,.82,2.21v5h-1.15V44.09a1.84,1.84,0,0,0-1.94-2.1,1.87,1.87,0,0,0-2,2.1v4.86h-1.15V41.05h1.14v.88a2.88,2.88,0,0,1,2.23-1A2.8,2.8,0,0,1,323,41.7Z" transform="translate(-147.92 -22.33)"/><path class="cls-6" d="M332.1,43.59v5.36h-1.15v-.75a3.63,3.63,0,0,1-4.51.13,2.21,2.21,0,0,1-.59-1.6c0-1.39,1-2.28,2.74-2.28h2.36v-.75c0-1.14-.56-1.73-2-1.73a2.11,2.11,0,0,0-2,.91l-.79-.72A3,3,0,0,1,328.94,41C331.07,41,332.1,41.89,332.1,43.59Zm-3.35,1.72q-1.78,0-1.78,1.4c0,.91.56,1.35,1.83,1.35a2.36,2.36,0,0,0,1.75-.53,1.81,1.81,0,0,0,.4-1.36V45.3Z" transform="translate(-147.92 -22.33)"/><path class="cls-6" d="M334.41,47.92l4.51-5.73a2.62,2.62,0,0,0,.64-1.68,2,2,0,1,0-4,0h-1.15a3,3,0,0,1,3.14-3.1,2.93,2.93,0,0,1,3.14,3.08,3.42,3.42,0,0,1-.91,2.31l-4,5.1h4.91v1h-6.3Z" transform="translate(-147.92 -22.33)"/><path class="cls-6" d="M342.6,45.9V40.57a3.13,3.13,0,1,1,6.26,0V45.9a3.13,3.13,0,1,1-6.26,0Zm5.1-.06v-5.2a2,2,0,1,0-3.95,0v5.2a2,2,0,1,0,3.95,0Z" transform="translate(-147.92 -22.33)"/><path class="cls-6" d="M353.91,38.81l-2.14,1.88V39.37l2.14-1.85h1.15V48.95h-1.15Z" transform="translate(-147.92 -22.33)"/><path class="cls-6" d="M364.34,38.55h-4v1.8h-1.14V37.53h6.34v1l-4,10.39h-1.22Z" transform="translate(-147.92 -22.33)"/><line class="cls-7" x1="52.66" y1="20.91" x2="41.7" y2="20.91"/><polygon class="cls-2" points="46.27 15.46 51.72 20.91 46.27 26.35 50.89 26.35 56.33 20.91 50.89 15.46 46.27 15.46"/><line class="cls-8" x1="220.06" y1="10.73" x2="220.06" y2="31.09"/><path class="cls-1" d="M295.74,46.18,287.4,149.68a.65.65,0,0,0,.63.66h.1a.72.72,0,0,0,.72-.49L312,46.36Z" transform="translate(-147.92 -22.33)"/><rect class="cls-1" x="0.01" width="238.42" height="41.82" rx="4.76" ry="4.76"/><rect class="cls-2" x="6.16" y="6.15" width="29.52" height="29.52" rx="3.58" ry="3.58"/><path class="cls-9" d="M168.84,33.74a9.45,9.45,0,0,0-9.3,7.79,8.88,8.88,0,0,0-.13,1.14c0,.16,0,.31,0,.47v.05a9.42,9.42,0,0,0,3,6.89V54l.09-.05,3.15-1.9a9.45,9.45,0,1,0,3.22-18.33Zm5.74,7.1-2.19,2.4L169.88,46c0,.05-.07.06-.12,0l-2.36-2.37a.09.09,0,0,0-.12,0L163,46l-.1.06h0l.32-.36,2.48-2.72,2.07-2.28s.06,0,.11,0L170.27,43a.09.09,0,0,0,.13,0l4.24-2.36.11-.06v0Z" transform="translate(-147.92 -22.33)"/><path class="cls-4" d="M174.63,40.69l-4.24,2.36a.09.09,0,0,1-.12,0l-2.37-2.38s-.06,0-.11,0l-2.07,2.28-2.48,2.72-.32.36h0L163,46l4.25-2.36a.09.09,0,0,1,.13,0L169.76,46c.05.05.07,0,.12,0l2.5-2.76,2.19-2.4.17-.2v0Z" transform="translate(-147.92 -22.33)"/><path class="cls-5" d="M365.44,28.48H224.37a14.76,14.76,0,1,0,0,29.52H365.44a14.76,14.76,0,0,0,0-29.52Z" transform="translate(-147.92 -22.33)"/><path class="cls-6" d="M232.64,48.72l-3.36-3.36a.44.44,0,0,0-.62,0l-.06.06-1.19-1.19.11-.15a4.88,4.88,0,0,0,1-3.66,5,5,0,0,0-3.89-4.23l-.62-.11h-.91l-.58.11a5,5,0,0,0-3.91,4.22l0,.23v.88l0,.13a9.08,9.08,0,0,0,.19.9,5,5,0,0,0,7.63,2.63l.23-.16,1.2,1.19-.08.08a.44.44,0,0,0,0,.62l3.36,3.36a.43.43,0,0,0,.61,0l.92-.92A.44.44,0,0,0,232.64,48.72ZM223.55,45a3.94,3.94,0,1,1,3.95-3.95A3.94,3.94,0,0,1,223.55,45Z" transform="translate(-147.92 -22.33)"/><path class="cls-6" d="M248.73,38.68l-.79.79a3.54,3.54,0,0,0-2.66-1c-1.54,0-2.42.85-2.42,2.13a1.69,1.69,0,0,0,.51,1.33,3.08,3.08,0,0,0,1.49.59l1.33.21a3.43,3.43,0,0,1,2.07.82,2.87,2.87,0,0,1,1,2.25c0,2-1.56,3.24-3.95,3.24a4.94,4.94,0,0,1-3.9-1.51l.82-.82A3.91,3.91,0,0,0,245.31,48c1.68,0,2.71-.77,2.71-2.12a1.8,1.8,0,0,0-.56-1.43,2.46,2.46,0,0,0-1.49-.56l-1.33-.19a4,4,0,0,1-2.08-.87,2.72,2.72,0,0,1-.88-2.15c0-1.94,1.4-3.21,3.66-3.21A4.65,4.65,0,0,1,248.73,38.68Z" transform="translate(-147.92 -22.33)"/><path class="cls-6" d="M257.05,43.59v5.36H255.9v-.75a3.63,3.63,0,0,1-4.51.13,2.2,2.2,0,0,1-.6-1.6c0-1.39,1-2.28,2.74-2.28h2.36v-.75c0-1.14-.56-1.73-2-1.73a2.11,2.11,0,0,0-2,.91l-.79-.72A3,3,0,0,1,253.89,41C256,41,257.05,41.89,257.05,43.59ZM253.7,45.3q-1.78,0-1.78,1.4c0,.91.56,1.35,1.83,1.35a2.36,2.36,0,0,0,1.75-.53,1.81,1.81,0,0,0,.4-1.36V45.3Z" transform="translate(-147.92 -22.33)"/><path class="cls-6" d="M260.84,46.8c0,.77.25,1.16,1.06,1.16h.63v1h-.84a1.88,1.88,0,0,1-2-2.1V37.53h1.16Z" transform="translate(-147.92 -22.33)"/><path class="cls-6" d="M270.38,44.79v.51h-5.32c0,1.73.8,2.73,2.32,2.73a2.59,2.59,0,0,0,2.07-.9l.79.69A3.64,3.64,0,0,1,267.35,49c-2.1,0-3.45-1.25-3.45-4,0-2.57,1.23-4,3.24-4S270.38,42.42,270.38,44.79Zm-5.08-1.67a3,3,0,0,0-.24,1.32h4.19a3.27,3.27,0,0,0-.26-1.32,2,2,0,0,0-3.69,0Z" transform="translate(-147.92 -22.33)"/><path class="cls-6" d="M283.13,41.7a2.93,2.93,0,0,1,.85,2.2v5.05h-1.16V44.09a2,2,0,1,0-3.91-.13v5h-1.15V44.09a1.84,1.84,0,0,0-1.94-2.1,1.87,1.87,0,0,0-2,2.1v4.86h-1.16V41.05h1.16v.87a2.88,2.88,0,0,1,2.23-1,2.6,2.6,0,0,1,2.42,1.31A3,3,0,0,1,281.1,41,2.87,2.87,0,0,1,283.13,41.7Z" transform="translate(-147.92 -22.33)"/><path class="cls-6" d="M294.81,48.95h-1.3l-.92-2.58h-5l-.92,2.58h-1.3l4.2-11.42h1ZM288,45.3h4.25l-2.12-6Z" transform="translate(-147.92 -22.33)"/><path class="cls-6" d="M301.64,41.81l-.75.75a3.38,3.38,0,0,0-2.1-.63c-1.15,0-1.76.48-1.76,1.3s.43,1.06,1.41,1.15l1.23.11c1.38.13,2.33.64,2.33,2.13S300.71,49,298.79,49a4.31,4.31,0,0,1-3.24-1.14l.77-.77a3.27,3.27,0,0,0,2.46.92c1.32,0,2.1-.47,2.1-1.4,0-.71-.38-1.08-1.31-1.16l-1.3-.11c-1.54-.13-2.36-.8-2.36-2.12s1.2-2.31,2.9-2.31A4.46,4.46,0,0,1,301.64,41.81Z" transform="translate(-147.92 -22.33)"/><path class="cls-6" d="M305.46,41.05h1.68v.88h-1.68V46.8c0,.74.34,1.16,1.07,1.16h.61v1h-.82a1.94,1.94,0,0,1-2-2.12V41.94h-1v-.88h1V38.63h1.16Z" transform="translate(-147.92 -22.33)"/><path class="cls-6" d="M314.93,43.59v5.36h-1.15v-.75a3.63,3.63,0,0,1-4.51.13,2.2,2.2,0,0,1-.59-1.6c0-1.39,1-2.28,2.74-2.28h2.36v-.75c0-1.14-.56-1.73-2-1.73a2.11,2.11,0,0,0-2,.91l-.79-.72A3,3,0,0,1,311.76,41C313.9,41,314.93,41.89,314.93,43.59Zm-3.35,1.72q-1.78,0-1.78,1.4c0,.91.56,1.35,1.83,1.35a2.36,2.36,0,0,0,1.75-.53,1.82,1.82,0,0,0,.4-1.36V45.3Z" transform="translate(-147.92 -22.33)"/><path class="cls-6" d="M323,41.7a3,3,0,0,1,.82,2.21v5h-1.15V44.09a1.84,1.84,0,0,0-1.94-2.1,1.87,1.87,0,0,0-2,2.1v4.86h-1.15V41.05h1.14v.88A2.88,2.88,0,0,1,321,41,2.8,2.8,0,0,1,323,41.7Z" transform="translate(-147.92 -22.33)"/><path class="cls-6" d="M332.1,43.59v5.36h-1.15v-.75a3.63,3.63,0,0,1-4.51.13,2.21,2.21,0,0,1-.59-1.6c0-1.39,1-2.28,2.74-2.28h2.36v-.75c0-1.14-.56-1.73-2-1.73a2.11,2.11,0,0,0-2,.91l-.79-.72A3,3,0,0,1,328.94,41C331.08,41,332.1,41.89,332.1,43.59Zm-3.35,1.72q-1.78,0-1.78,1.4c0,.91.56,1.35,1.83,1.35a2.36,2.36,0,0,0,1.75-.53,1.81,1.81,0,0,0,.4-1.36V45.3Z" transform="translate(-147.92 -22.33)"/><path class="cls-6" d="M334.41,47.92l4.51-5.73a2.62,2.62,0,0,0,.64-1.68,2,2,0,1,0-4,0h-1.15a3,3,0,0,1,3.14-3.1,2.93,2.93,0,0,1,3.14,3.08,3.42,3.42,0,0,1-.91,2.31l-4,5.1h4.91v1h-6.3Z" transform="translate(-147.92 -22.33)"/><path class="cls-6" d="M342.61,45.9V40.57a3.13,3.13,0,1,1,6.26,0V45.9a3.13,3.13,0,1,1-6.26,0Zm5.1-.06v-5.2a2,2,0,1,0-3.95,0v5.2a2,2,0,1,0,3.95,0Z" transform="translate(-147.92 -22.33)"/><path class="cls-6" d="M353.92,38.81l-2.14,1.88V39.37l2.14-1.85h1.15V48.95h-1.15Z" transform="translate(-147.92 -22.33)"/><path class="cls-6" d="M364.34,38.55h-4v1.8h-1.14V37.53h6.34v1l-4,10.39h-1.22Z" transform="translate(-147.92 -22.33)"/><line class="cls-7" x1="52.67" y1="20.91" x2="41.7" y2="20.91"/><polygon class="cls-2" points="46.27 15.46 51.72 20.91 46.27 26.35 50.9 26.35 56.34 20.91 50.9 15.46 46.27 15.46"/><line class="cls-8" x1="220.07" y1="10.73" x2="220.07" y2="31.09"/></svg>