<svg xmlns="http://www.w3.org/2000/svg" viewBox="0 0 534.26 156.04"><defs><style>.cls-1{fill:#305f77;}.cls-13,.cls-16,.cls-2,.cls-21,.cls-3,.cls-32,.cls-37,.cls-4{fill:#fff;}.cls-21,.cls-3,.cls-31,.cls-38,.cls-4{opacity:0.5;}.cls-4{font-size:39px;letter-spacing:-0.04em;}.cls-13,.cls-16,.cls-21,.cls-32,.cls-37,.cls-38,.cls-4{font-family:Arial-BoldMT, Arial;font-weight:700;}.cls-5{letter-spacing:-0.05em;}.cls-6{letter-spacing:-0.04em;}.cls-7{letter-spacing:-0.06em;}.cls-8{letter-spacing:-0.04em;}.cls-9{letter-spacing:-0.05em;}.cls-10{letter-spacing:-0.05em;}.cls-11{letter-spacing:-0.04em;}.cls-12{letter-spacing:0em;}.cls-13,.cls-16{font-size:49.72px;}.cls-14{letter-spacing:-0.04em;}.cls-15{letter-spacing:-0.04em;}.cls-16{letter-spacing:-0.02em;}.cls-17{letter-spacing:-0.02em;}.cls-18{letter-spacing:-0.03em;}.cls-19{letter-spacing:-0.02em;}.cls-20{letter-spacing:0em;}.cls-21,.cls-32{font-size:15.09px;}.cls-22{letter-spacing:-0.01em;}.cls-23{letter-spacing:-0.02em;}.cls-24{letter-spacing:-0.04em;}.cls-25{letter-spacing:-0.02em;}.cls-26{letter-spacing:-0.03em;}.cls-27{letter-spacing:-0.05em;}.cls-28{letter-spacing:-0.05em;}.cls-29{letter-spacing:-0.05em;}.cls-30{letter-spacing:-0.06em;}.cls-32,.cls-34{letter-spacing:-0.04em;}.cls-33{letter-spacing:-0.11em;}.cls-35{letter-spacing:-0.05em;}.cls-36{letter-spacing:-0.05em;}.cls-37{font-size:120.74px;}.cls-38{font-size:14.87px;}.cls-39{letter-spacing:-0.02em;}.cls-40{letter-spacing:-0.02em;}</style></defs><title>htp-1-ru</title><g id="Layer_2" data-name="Layer 2"><g id="Layer_1-2" data-name="Layer 1"><rect class="cls-1" x="1.95" y="1.95" width="530.36" height="128.69"/><path class="cls-2" d="M530.37,128.69H3.9V3.9H530.37ZM534.26,0H0V132.59H534.26V0Z"/><rect class="cls-3" x="443.59" y="11.7" width="78.97" height="78.97"/><text class="cls-4" transform="translate(16.85 113.09)">R<tspan class="cls-5" x="26.68" y="0">E</tspan><tspan class="cls-6" x="50.59" y="0">S</tspan><tspan class="cls-7" x="74.92" y="0">P</tspan><tspan class="cls-8" x="98.67" y="0">U</tspan><tspan class="cls-9" x="125.12" y="0">B</tspan><tspan class="cls-10" x="151.45" y="0">L</tspan><tspan class="cls-11" x="173.36" y="0">I</tspan><tspan class="cls-12" x="182.83" y="0">KA</tspan></text><text class="cls-13" transform="translate(16.29 55.41)"><tspan class="cls-14">P</tspan><tspan class="cls-15" x="31.27" y="0">E</tspan><tspan x="62.65" y="0">C</tspan></text><text class="cls-16" transform="translate(113.15 55.41)">П<tspan class="cls-17" x="34.99" y="0">УБ</tspan><tspan class="cls-18" x="100.07" y="0">Л</tspan><tspan class="cls-19" x="133.71" y="0">И</tspan><tspan class="cls-20" x="168.26" y="0">К</tspan></text><text class="cls-13" transform="translate(312.58 55.41)">A</text><text class="cls-21" transform="translate(264.99 82.7)">Д</text><text class="cls-21" transform="translate(275.51 82.7)">a</text><text class="cls-21" transform="translate(283.54 82.7)"><tspan class="cls-22">Ң</tspan><tspan class="cls-23" x="10.7" y="0">Ғ</tspan><tspan class="cls-24" x="18.94" y="0">Ь</tspan><tspan class="cls-25" x="29.2" y="0">І</tspan><tspan class="cls-26" x="33.05" y="0">Л</tspan><tspan x="43.19" y="0">Ы</tspan></text><text class="cls-21" transform="translate(262.06 98.29)"><tspan class="cls-27">П</tspan><tspan class="cls-28" x="10.08" y="0">Р</tspan><tspan class="cls-29" x="19.32" y="0">О</tspan><tspan class="cls-30" x="30.3" y="0">С</tspan><tspan x="40.22" y="0">П</tspan></text><g class="cls-31"><text class="cls-32" transform="translate(312.41 98.29)">EKT</text></g><text class="cls-21" transform="translate(283.07 113.89)"><tspan class="cls-33">A</tspan><tspan class="cls-34" x="9.32" y="0">V</tspan><tspan class="cls-35" x="18.73" y="0">E</tspan><tspan class="cls-36" x="28.06" y="0">NU</tspan><tspan x="48.35" y="0">E</tspan></text><text class="cls-37" transform="translate(363.26 110.58)">3</text><g class="cls-31"><rect class="cls-2" x="443.59" y="98.47" width="78.97" height="22.42"/></g><text class="cls-38" transform="translate(447.32 115.21)"><tspan class="cls-39">Z</tspan><tspan class="cls-40" x="8.74" y="0">10HB5B</tspan><tspan x="63.63" y="0">2</tspan></text><polygon class="cls-31" points="460.04 28.16 460.04 24.84 460.04 21.57 456.76 21.57 453.46 21.57 453.46 24.84 453.46 28.16 456.76 28.16 460.04 28.16"/><rect class="cls-31" x="512.69" y="74.25" width="3.3" height="3.28"/><polygon class="cls-31" points="473.2 24.84 473.2 28.16 476.5 28.16 476.5 31.44 479.78 31.44 479.78 28.16 479.78 24.84 476.5 24.84 473.2 24.84"/><rect class="cls-31" x="456.76" y="38.03" width="3.28" height="3.28"/><polygon class="cls-31" points="492.95 31.44 492.95 28.16 492.95 24.84 492.95 21.6 496.23 21.6 496.23 18.29 492.95 18.29 492.95 21.57 489.65 21.57 489.65 18.29 492.95 18.29 492.95 14.97 489.65 14.97 486.37 14.97 486.37 18.29 486.37 21.57 486.37 24.84 489.65 24.84 489.65 28.16 486.37 28.16 486.37 31.44 489.65 31.44 492.95 31.44"/><rect class="cls-31" x="476.5" y="70.92" width="3.28" height="3.28"/><rect class="cls-31" x="460.04" y="44.59" width="3.3" height="3.32"/><rect class="cls-31" x="460.04" y="54.46" width="3.3" height="3.32"/><polygon class="cls-31" points="479.78 24.84 483.07 24.84 483.07 21.57 483.07 18.29 479.78 18.29 479.78 21.57 479.78 24.84"/><rect class="cls-31" x="469.91" y="21.57" width="3.3" height="3.28"/><rect class="cls-31" x="453.46" y="54.46" width="3.3" height="3.32"/><polygon class="cls-31" points="456.76 44.59 453.46 44.59 453.46 47.9 453.46 51.18 456.76 51.18 460.04 51.18 460.04 47.9 456.76 47.9 456.76 44.59"/><polygon class="cls-31" points="506.12 38.03 502.82 38.03 502.82 41.31 506.12 41.31 509.39 41.31 509.39 38.03 506.12 38.03"/><rect class="cls-31" x="479.78" y="74.2" width="3.29" height="3.32"/><rect class="cls-31" x="473.21" y="74.2" width="3.3" height="3.32"/><polygon class="cls-31" points="456.76 61.05 453.46 61.05 453.46 64.33 456.76 64.33 460.04 64.33 463.33 64.33 463.33 61.05 460.04 61.05 456.76 61.05"/><polygon class="cls-31" points="502.81 87.39 506.11 87.39 506.11 84.12 502.81 84.12 499.54 84.12 499.54 87.39 502.81 87.39"/><polygon class="cls-31" points="473.2 61.05 469.91 61.05 469.91 57.77 466.63 57.77 463.33 57.77 463.33 61.05 466.63 61.05 466.63 64.33 469.91 64.33 473.2 64.33 476.5 64.33 476.5 61.05 473.2 61.05"/><rect class="cls-31" x="479.78" y="38.03" width="3.29" height="3.28"/><polygon class="cls-31" points="489.65 41.31 492.95 41.31 492.95 38.03 489.65 38.03 486.37 38.03 486.37 41.31 489.65 41.31"/><polygon class="cls-31" points="476.5 41.31 476.5 38.03 473.2 38.03 473.2 34.72 469.91 34.72 469.91 38.03 469.91 41.31 466.63 41.31 466.63 38.03 463.33 38.03 463.33 41.31 463.33 44.59 466.63 44.59 469.91 44.59 473.2 44.59 473.2 41.31 476.5 41.31"/><polygon class="cls-31" points="486.37 34.72 486.37 31.44 483.07 31.44 483.07 34.72 483.07 38.03 486.37 38.03 486.37 34.72"/><rect class="cls-31" x="483.07" y="61.05" width="3.3" height="3.28"/><polygon class="cls-31" points="486.37 51.18 489.65 51.18 489.65 47.9 492.95 47.9 492.95 51.18 496.24 51.18 499.52 51.18 499.52 47.9 496.24 47.9 496.24 44.59 492.95 44.59 489.65 44.59 486.37 44.59 486.37 47.9 486.37 51.18"/><polygon class="cls-31" points="483.07 54.46 486.37 54.46 486.37 51.18 483.07 51.18 483.07 47.9 483.07 44.59 479.78 44.59 476.5 44.59 473.2 44.59 473.2 47.9 473.2 51.18 476.5 51.18 476.5 47.9 479.78 47.9 479.78 51.18 476.5 51.18 476.5 54.46 479.78 54.46 483.07 54.46"/><path class="cls-31" d="M519.26,57.77V54.46h-6.57v3.31H509.4v3.29h0v6.58h-3.3V61.06h0V57.77h0V54.46h-9.87v3.31h-3.29V54.46h-6.57v3.31h3.28v6.56h-3.28v3.32h-6.59v3.28h3.29V74.2h3.3V70.92h3.28v3.31H493v3.28h-3.29v3.3h6.56V77.52h0V74.23h3.28v3.29h0V80.8h-3.29v3.32h3.29V80.81h3.28V77.52h0V74.23h3.29v0h3.28V70.93h3.3V67.65H516V64.38h-3.3V61.06h0V57.77H516v3.29h3.28V57.77Zm-26.32,3.3h9.87v9.87h-9.87Z"/><rect class="cls-31" x="476.5" y="57.77" width="3.28" height="3.28"/><rect class="cls-31" x="483.07" y="41.31" width="3.3" height="3.28"/><rect class="cls-31" x="473.21" y="54.46" width="3.3" height="3.32"/><rect class="cls-31" x="469.91" y="67.65" width="3.3" height="3.28"/><rect class="cls-31" x="499.52" y="44.59" width="3.29" height="3.32"/><rect class="cls-31" x="476.5" y="64.33" width="3.28" height="3.32"/><polygon class="cls-31" points="469.91 54.46 469.91 51.18 469.91 47.9 466.63 47.9 466.63 51.18 463.33 51.18 463.33 54.46 466.63 54.46 469.91 54.46"/><rect class="cls-31" x="496.24" y="38.03" width="3.28" height="3.28"/><rect class="cls-31" x="509.41" y="84.12" width="3.28" height="3.28"/><polygon class="cls-31" points="519.26 41.31 519.26 38.03 515.99 38.03 512.69 38.03 512.69 41.31 515.99 41.31 519.26 41.31"/><polygon class="cls-31" points="519.26 51.18 519.26 47.9 515.99 47.9 512.69 47.9 512.69 51.18 515.99 51.18 519.26 51.18"/><rect class="cls-31" x="446.89" y="61.05" width="3.28" height="3.28"/><rect class="cls-31" x="506.09" y="77.51" width="3.32" height="3.3"/><rect class="cls-31" x="446.89" y="54.46" width="3.28" height="3.32"/><rect class="cls-31" x="473.21" y="18.29" width="3.3" height="3.28"/><path class="cls-31" d="M453.46,34.72h13.17V15H446.89V34.72h6.58Zm-3.3-6.56V18.29h13.17V31.44H450.16Z"/><polygon class="cls-31" points="453.46 41.31 453.46 38.03 450.16 38.03 446.89 38.03 446.89 41.31 450.16 41.31 453.46 41.31"/><rect class="cls-31" x="483.07" y="77.52" width="3.3" height="3.28"/><rect class="cls-31" x="509.39" y="41.31" width="3.3" height="3.28"/><polygon class="cls-31" points="512.69 54.46 512.69 51.18 509.39 51.18 509.39 47.9 506.12 47.9 506.12 51.18 506.12 54.46 509.39 54.46 512.69 54.46"/><rect class="cls-31" x="476.5" y="14.97" width="3.28" height="3.32"/><rect class="cls-31" x="483.09" y="24.84" width="3.28" height="3.32"/><rect class="cls-31" x="492.95" y="31.44" width="3.28" height="3.32"/><polygon class="cls-31" points="450.16 47.9 450.16 44.59 446.89 44.59 446.89 47.9 446.89 51.18 450.16 51.18 450.16 47.9"/><polygon class="cls-31" points="453.46 74.24 453.46 77.52 453.46 80.83 456.76 80.83 460.04 80.83 460.04 77.52 460.04 74.24 456.76 74.24 453.46 74.24"/><path class="cls-31" d="M460,67.65H446.89V87.39h19.74V67.65H460Zm3.3,6.59v9.87H450.16V71h13.17Z"/><polygon class="cls-31" points="512.67 28.16 512.67 24.84 512.67 21.57 509.39 21.57 506.09 21.57 506.09 24.84 506.09 28.16 509.39 28.16 512.67 28.16"/><path class="cls-31" d="M506.1,34.72h13.17V15H499.52V34.72h6.57Zm3.3-16.43H516V31.44H502.8V18.29"/><polygon class="cls-31" points="476.5 80.79 476.5 84.07 479.78 84.07 479.78 87.39 483.07 87.39 486.37 87.39 486.37 84.07 483.07 84.07 483.07 80.79 479.78 80.79 476.5 80.79"/><rect class="cls-31" x="469.91" y="80.79" width="3.3" height="3.28"/><rect class="cls-31" x="492.94" y="84.12" width="3.3" height="3.28"/><polygon class="cls-31" points="512.69 80.8 512.69 84.1 512.69 84.12 515.98 84.12 515.98 84.1 515.99 84.1 515.99 87.38 519.27 87.38 519.27 84.1 519.27 80.81 519.27 80.8 515.98 80.8 512.69 80.8"/><rect class="cls-31" x="496.23" y="64.36" width="3.3" height="3.28"/></g></g></svg>