<svg xmlns="http://www.w3.org/2000/svg" viewBox="0 0 540.79 163.62"><defs><style>.cls-1{fill:#facd11;}.cls-2{font-size:40.53px;fill:#333;font-family:DINPro-Bold, DINPro;font-weight:700;}.cls-3{letter-spacing:-0.02em;}.cls-4{letter-spacing:-0.02em;}.cls-5{letter-spacing:-0.02em;}.cls-6{letter-spacing:-0.01em;}.cls-7{letter-spacing:-0.01em;}.cls-8{letter-spacing:-0.02em;}.cls-9{letter-spacing:-0.01em;}.cls-10{letter-spacing:0em;}.cls-11{letter-spacing:-0.02em;}.cls-12{letter-spacing:-0.01em;}.cls-13{letter-spacing:-0.02em;}.cls-14{letter-spacing:-0.04em;}.cls-15{letter-spacing:0.01em;}.cls-16{letter-spacing:-0.01em;}.cls-17{letter-spacing:-0.01em;}.cls-18{letter-spacing:-0.01em;}.cls-19{letter-spacing:-0.02em;}.cls-20{letter-spacing:-0.03em;}.cls-21{letter-spacing:-0.01em;}</style></defs><title>htp-3-ru</title><g id="Layer_2" data-name="Layer 2"><g id="Layer_1-2" data-name="Layer 1"><path class="cls-1" d="M22.47,163.62H496.64a22.47,22.47,0,0,0,22.47-22.47V55.4a22.47,22.47,0,0,0-22.47-22.47H22.47A22.47,22.47,0,0,0,0,55.4v85.75a22.47,22.47,0,0,0,22.47,22.47"/><polygon class="cls-1" points="465.54 0 465.54 65.6 432.74 65.6 432.74 32.8 465.54 0"/><text class="cls-2" transform="translate(26 86.31)"><tspan class="cls-3">Д</tspan><tspan class="cls-4" x="27.8" y="0">о</tspan><tspan class="cls-5" x="49.2" y="0">б</tspan><tspan class="cls-6" x="70.6" y="0">р</tspan><tspan class="cls-7" x="92.72" y="0">о </tspan><tspan class="cls-3" x="123.4" y="0">п</tspan><tspan class="cls-8" x="145.85" y="0">о</tspan><tspan class="cls-9" x="166.97" y="0">ж</tspan><tspan class="cls-10" x="197.28" y="0">а</tspan><tspan class="cls-4" x="218.96" y="0">л</tspan><tspan class="cls-11" x="241.49" y="0">о</tspan><tspan class="cls-12" x="262.85" y="0">в</tspan><tspan class="cls-6" x="284.74" y="0">а</tspan><tspan class="cls-13" x="305.81" y="0">т</tspan><tspan class="cls-14" x="323.56" y="0">ь</tspan><tspan class="cls-12" x="343.21" y="0">!</tspan><tspan x="356.87" y="0"> </tspan><tspan class="cls-7" x="366.27" y="0">Я </tspan><tspan class="cls-11" x="401.29" y="0">р</tspan><tspan class="cls-15" x="423.33" y="0">а</tspan><tspan class="cls-7" x="445.38" y="0">д </tspan><tspan class="cls-3" x="0" y="48.63">п</tspan><tspan class="cls-16" x="22.45" y="48.63">о</tspan><tspan class="cls-12" x="43.97" y="48.63">г</tspan><tspan class="cls-11" x="61.15" y="48.63">о</tspan><tspan class="cls-4" x="82.51" y="48.63">в</tspan><tspan class="cls-11" x="104.19" y="48.63">о</tspan><tspan class="cls-17" x="125.55" y="48.63">р</tspan><tspan class="cls-4" x="147.8" y="48.63">и</tspan><tspan class="cls-13" x="171.06" y="48.63">т</tspan><tspan class="cls-7" x="188.81" y="48.63">ь </tspan><tspan class="cls-12" x="218.92" y="48.63">с</tspan><tspan x="237.97" y="48.63"> </tspan><tspan class="cls-18" x="247.37" y="48.63">то</tspan><tspan class="cls-19" x="286.64" y="48.63">б</tspan><tspan class="cls-4" x="308.16" y="48.63">о</tspan><tspan class="cls-20" x="329.56" y="48.63">й</tspan><tspan class="cls-12" x="352.09" y="48.63">!</tspan><tspan class="cls-21" x="365.75" y="48.63"> </tspan><tspan class="cls-5" x="374.78" y="48.63">..</tspan><tspan x="396.26" y="48.63">.</tspan></text></g></g></svg>