<?xml version="1.0" encoding="utf-8"?>
<!-- Generator: Adobe Illustrator 21.0.0, SVG Export Plug-In . SVG Version: 6.00 Build 0)  -->
<svg version="1.1" id="Layer_1" xmlns="http://www.w3.org/2000/svg" xmlns:xlink="http://www.w3.org/1999/xlink" x="0px" y="0px"
	 viewBox="0 0 498.1 167.2" style="enable-background:new 0 0 498.1 167.2;" xml:space="preserve">
<style type="text/css">
	.st0{fill:#F2F2F2;}
	.st1{fill:#333333;}
	.st2{font-family:'DINPro-Bold';}
	.st3{font-size:33.34px;}
	.st4{letter-spacing:-1;}
	.st5{letter-spacing:-2;}
	.st6{fill:#29AAE1;}
	.st7{fill:#FFFFFF;}
	.st8{font-size:40.53px;}
	.st9{font-family:'Arial-BoldMT';}
</style>
<title>htp-2-ru</title>
<g id="Layer_2">
	<g id="Layer_1-2">
		<path class="st0" d="M41.1,59.8h313.1c10.5,0,19-8.5,19-19V19c0-10.5-8.5-19-19-19H41.1c-10.5,0-19,8.5-19,19v21.8
			C22.1,51.3,30.6,59.8,41.1,59.8"/>
		<text transform="matrix(1 0 0 1 40.95 38.3601)" class="st1 st2 st3 st4">TO</text>
		<text transform="matrix(1 0 0 1 79.1899 38.3601)" class="st1 st2 st3">:</text>
		<text transform="matrix(1 0 0 1 89.16 38.3601)" class="st1 st2 st3"> </text>
		<text transform="matrix(1 0 0 1 96.6 38.3601)" class="st1 st2 st3 st5">+</text>
		<text transform="matrix(1 0 0 1 112.4301 38.3601)" class="st1 st2 st3">7</text>
		<text transform="matrix(1 0 0 1 130.2 38.3601)" class="st1 st2 st3"> </text>
		<text transform="matrix(1 0 0 1 137.64 38.3601)" class="st1 st2 st3">(</text>
		<text transform="matrix(1 0 0 1 148.34 38.3601)" class="st1 st2 st3 st4">7</text>
		<text transform="matrix(1 0 0 1 165.25 38.3601)" class="st1 st2 st3 st4">0</text>
		<text transform="matrix(1 0 0 1 182.05 38.3601)" class="st1 st2 st3 st5">1</text>
		<text transform="matrix(1 0 0 1 197.65 38.3601)" class="st1 st2 st3">)</text>
		<text transform="matrix(1 0 0 1 208.52 38.3601)" class="st1 st2 st3"> </text>
		<text transform="matrix(1 0 0 1 215.96 38.3601)" class="st1 st2 st3">xx</text>
		<text transform="matrix(1 0 0 1 252.1 38.3601)" class="st1 st2 st3">x</text>
		<text transform="matrix(1 0 0 1 269.34 38.3601)" class="st1 st2 st3"> </text>
		<text transform="matrix(1 0 0 1 276.77 38.3601)" class="st1 st2 st3">x</text>
		<text transform="matrix(1 0 0 1 294.84 38.3601)" class="st1 st2 st3">x</text>
		<text transform="matrix(1 0 0 1 312.0801 38.3601)" class="st1 st2 st3"> </text>
		<text transform="matrix(1 0 0 1 319.52 38.3601)" class="st1 st2 st3">x</text>
		<text transform="matrix(1 0 0 1 337.5901 38.3601)" class="st1 st2 st3">x</text>
		<polygon class="st6" points="232.7,156.1 232.7,90.5 265.4,90.5 265.4,123.3 		"/>
		<path class="st6" d="M22.5,123.3h453.2c12.4,0,22.5-10.1,22.5-22.5l0,0V75.1c0-12.4-10.1-22.5-22.5-22.5l0,0H22.5
			C10.1,52.6,0,62.7,0,75.1c0,0,0,0,0,0v25.8C0,113.2,10.1,123.3,22.5,123.3L22.5,123.3"/>
		<text transform="matrix(1 0 0 1 28.1899 100.1599)" class="st7 st2 st8">С</text>
		<text transform="matrix(1 0 0 1 52.95 100.1599)" class="st7 st9 st8">ə</text>
		<text transform="matrix(1 0 0 1 75.13 100.1599)" class="st7 st2 st8">лем</text>
		<text transform="matrix(1 0 0 1 157.53 100.1599)" class="st7 st2 st8">PECПУБЛИКA</text>
		<text transform="matrix(1 0 0 1 424.5901 100.1599)" class="st7 st2 st8">#</text>
		<text transform="matrix(1 0 0 1 451.1799 100.1599)" class="st7 st2 st8">3</text>
		<path class="st1" d="M452.8,138.7c0,15.8-12.8,28.5-28.5,28.5H343c-15.8,0-28.5-12.8-28.5-28.5c0-15.8,12.8-28.5,28.5-28.5
			c0,0,0,0,0,0h81.3C440,110.2,452.8,122.9,452.8,138.7"/>
		<text transform="matrix(1 0 0 1 341.3101 149.5)" class="st7 st2 st8">send</text>
	</g>
</g>
</svg>
