<svg id="Layer_4" data-name="Layer 4" xmlns="http://www.w3.org/2000/svg" viewBox="0 0 277.56 89.57"><defs><style>.cls-1{fill:#fff;}.cls-2{fill:#2a2a2a;}.cls-3{fill:#e6e6e6;}.cls-4{fill:#448afe;}.cls-5{fill:#666;}.cls-6{fill:none;stroke:#448afe;stroke-linecap:round;stroke-linejoin:round;stroke-width:1.37px;}</style></defs><title>htp-3-ru</title><path class="cls-1" d="M281.27,119.85h-.09a.79.79,0,0,1-.7-.86L285.3,68.8l8.61.1-11.78,50.32a.82.82,0,0,1-.82.62Z" transform="translate(-117.57 -30.77)"/><path class="cls-2" d="M285.75,69.31l7.53.08-11.64,49.72a.33.33,0,0,1-.33.24h0A.31.31,0,0,1,281,119l4.77-49.72m-.91-1-.09.91L280,118.93a1.3,1.3,0,0,0,1.16,1.41h.17a1.32,1.32,0,0,0,1.3-1l11.64-49.71.28-1.21H293.3l-7.53-.08Z" transform="translate(-117.57 -30.77)"/><path class="cls-1" d="M368.06,30.77H144.63a27.07,27.07,0,0,0,0,54.13H368.06a27.07,27.07,0,1,0,0-54.13Z" transform="translate(-117.57 -30.77)"/><path class="cls-3" d="M320.26,38H144.58a19.81,19.81,0,1,0,0,39.62H320.26a19.81,19.81,0,0,0,0-39.62Z" transform="translate(-117.57 -30.77)"/><circle class="cls-4" cx="250.5" cy="27.07" r="19.81"/><path class="cls-1" d="M380.86,58.3a.49.49,0,0,0,0-.93L361.33,46.1c-.44-.25-.73-.05-.63.45l1.63,8.82a1.35,1.35,0,0,0,1.09,1l9.08,1.1c.51.06.57.22.57.34s-.07.28-.57.34l-9.08,1.1a1.35,1.35,0,0,0-1.09,1l-1.63,8.83c-.09.5.19.7.63.45Z" transform="translate(-117.57 -30.77)"/><path class="cls-5" d="M156.83,55.22h-1.36a2.92,2.92,0,0,0-3-2.52,3,3,0,0,0-2.15.87c-.79.8-.87,1.71-.87,4.26s.09,3.46.87,4.26a3,3,0,0,0,5.1-1.64h1.36a4.22,4.22,0,0,1-4.32,3.71,4.27,4.27,0,0,1-3.11-1.22c-1.17-1.17-1.24-2.25-1.24-5.1s.07-3.93,1.24-5.1a4.27,4.27,0,0,1,3.11-1.22A4.21,4.21,0,0,1,156.83,55.22Z" transform="translate(-117.57 -30.77)"/><path class="cls-5" d="M158.92,60v-.56h5.8c0-1.89-.88-3-2.54-3a2.82,2.82,0,0,0-2.25,1l-.86-.75a4,4,0,0,1,3.14-1.33c2.29,0,3.76,1.36,3.76,4.4,0,2.8-1.35,4.4-3.53,4.4S158.92,62.58,158.92,60Zm5.54,1.82a3.3,3.3,0,0,0,.26-1.43h-4.56a3.53,3.53,0,0,0,.28,1.43,2.21,2.21,0,0,0,4,0Z" transform="translate(-117.57 -30.77)"/><path class="cls-5" d="M174.83,64.06h-1.26V56.58h-3v2.94c0,3.6-1.17,4.54-2.75,4.54h-.58V63h.28c.77,0,1.82-.25,1.82-3.83V55.46h5.51Z" transform="translate(-117.57 -30.77)"/><path class="cls-5" d="M184.41,59.54v.56h-5.8c0,1.89.87,3,2.54,3a2.82,2.82,0,0,0,2.25-1l.86.75a4,4,0,0,1-3.15,1.33c-2.29,0-3.76-1.36-3.76-4.4,0-2.8,1.35-4.4,3.53-4.4S184.41,56.95,184.41,59.54Zm-5.54-1.82a3.28,3.28,0,0,0-.26,1.43h4.56a3.53,3.53,0,0,0-.28-1.43,2.21,2.21,0,0,0-4,0Z" transform="translate(-117.57 -30.77)"/><path class="cls-5" d="M195.23,64.06H194V57.75l-2.43,4.33h-.89l-2.46-4.33v6.31h-1.26v-8.6h1.26l2.94,5.33L194,55.46h1.24Z" transform="translate(-117.57 -30.77)"/><path class="cls-5" d="M207.27,51.62a3.67,3.67,0,1,1,0,7.32H204v5.12h-1.33V51.62ZM204,52.81v4.95h3.2a2.48,2.48,0,1,0,0-4.95Z" transform="translate(-117.57 -30.77)"/><path class="cls-5" d="M219.86,59.54v.56h-5.8c0,1.89.87,3,2.53,3a2.83,2.83,0,0,0,2.25-1l.85.75a4,4,0,0,1-3.14,1.33c-2.29,0-3.76-1.36-3.76-4.4,0-2.8,1.35-4.4,3.53-4.4S219.86,56.95,219.86,59.54Zm-5.54-1.82a3.3,3.3,0,0,0-.26,1.43h4.56a3.55,3.55,0,0,0-.28-1.43,2.21,2.21,0,0,0-4,0Z" transform="translate(-117.57 -30.77)"/><path class="cls-5" d="M228.56,56.63l-.86.8a2.36,2.36,0,0,0-2-1,2.33,2.33,0,0,0-2,1,3.69,3.69,0,0,0-.56,2.31,3.69,3.69,0,0,0,.56,2.31,2.33,2.33,0,0,0,2,1,2.38,2.38,0,0,0,2-1l.86.82a3.4,3.4,0,0,1-2.83,1.28c-2.17,0-3.81-1.47-3.81-4.4s1.64-4.4,3.81-4.4A3.4,3.4,0,0,1,228.56,56.63Z" transform="translate(-117.57 -30.77)"/><path class="cls-5" d="M237.47,64.06h-1.26V56.58h-4.16v7.48H230.8v-8.6h6.68Z" transform="translate(-117.57 -30.77)"/><path class="cls-5" d="M242.54,66.3a2.52,2.52,0,0,1-.61,1,2.36,2.36,0,0,1-1.68.59h-.54V66.79h.38c.87,0,1.13-.28,1.42-1.07l.66-1.83-3.09-8.42h1.36l2.36,6.9,2.34-6.9h1.36Z" transform="translate(-117.57 -30.77)"/><path class="cls-5" d="M254.12,52.69c-1,.09-3.2,0-4.19.84-.8.7-1,1.73-1,3.22a2.28,2.28,0,0,1,1-.91,3.65,3.65,0,0,1,1.54-.37,3,3,0,0,1,2.18.75,4.83,4.83,0,0,1,1.12,3.57c0,1.71-.32,2.71-1,3.44a3.35,3.35,0,0,1-2.41.94A3.24,3.24,0,0,1,248.16,62a9.3,9.3,0,0,1-.37-3c0-4.05,0-5.26,1.19-6.31s3.81-1.07,5.14-1.19Zm-4.35,4.51a3.61,3.61,0,0,0-.72,2.62,3.5,3.5,0,0,0,.72,2.6,2.24,2.24,0,0,0,3.11,0,3.52,3.52,0,0,0,.66-2.57c0-1.38-.17-2.15-.66-2.66a2.19,2.19,0,0,0-3.11,0Z" transform="translate(-117.57 -30.77)"/><path class="cls-5" d="M263.62,64.06h-1.26V56.58h-3v2.94c0,3.6-1.17,4.54-2.74,4.54H256V63h.28c.77,0,1.82-.25,1.82-3.83V55.46h5.5Z" transform="translate(-117.57 -30.77)"/><path class="cls-5" d="M273.55,64.06h-1.26V57.35l-4.42,6.71h-1.26v-8.6h1.26v6.68l4.42-6.68h1.26Z" transform="translate(-117.57 -30.77)"/><path class="cls-5" d="M277.8,64.06h-1.26v-8.6h1.26Zm1.5-4.54,4.21,4.54h-1.62l-4.07-4.46,3.79-4.14h1.55Z" transform="translate(-117.57 -30.77)"/><path class="cls-5" d="M291.17,58.22v5.84h-1.26v-.82a4,4,0,0,1-4.91.14,2.4,2.4,0,0,1-.65-1.75c0-1.52,1.07-2.48,3-2.48h2.57v-.82c0-1.24-.61-1.89-2.2-1.89a2.3,2.3,0,0,0-2.17,1l-.86-.79a3.31,3.31,0,0,1,3-1.29C290.05,55.36,291.17,56.37,291.17,58.22Zm-3.65,1.87c-1.29,0-1.94.5-1.94,1.52s.61,1.47,2,1.47a2.59,2.59,0,0,0,1.9-.58,2,2,0,0,0,.44-1.49V60.1Z" transform="translate(-117.57 -30.77)"/><path class="cls-5" d="M305.68,55.36h1.52v1.15h-1.7L305.12,59h1.56V60.1h-1.73l-.63,4H303l.65-4h-2.81l-.61,4h-1.3l.63-4H298V59h1.75l.4-2.46h-1.61V55.36h1.76l.59-3.76h1.31l-.61,3.76h2.78L305,51.6h1.28Zm-4.23,1.15L301,59h2.78l.4-2.46Z" transform="translate(-117.57 -30.77)"/><path class="cls-5" d="M309.11,60.88h1.26A2.2,2.2,0,0,0,312.76,63a2.28,2.28,0,0,0,2.39-2.41,2.15,2.15,0,0,0-2.45-2.4h-.26v-1.1h.26a2,2,0,0,0,2.22-2.24,2.08,2.08,0,0,0-2.17-2.27,2.11,2.11,0,0,0-2.24,2.08h-1.26a3.31,3.31,0,0,1,3.5-3.2,3.22,3.22,0,0,1,3.43,3.37,2.77,2.77,0,0,1-1.68,2.75,2.9,2.9,0,0,1,1.91,3,3.37,3.37,0,0,1-3.65,3.51A3.31,3.31,0,0,1,309.11,60.88Z" transform="translate(-117.57 -30.77)"/><line class="cls-6" x1="202" y1="16.54" x2="202" y2="37.59"/></svg>