<?xml version="1.0" encoding="UTF-8"?>
<svg width="400px" height="400px" viewBox="0 0 400 400" version="1.1" xmlns="http://www.w3.org/2000/svg" xmlns:xlink="http://www.w3.org/1999/xlink">
    <!-- Generator: Sketch 43.2 (39069) - http://www.bohemiancoding.com/sketch -->
    <title>process-3</title>
    <desc>Created with Sketch.</desc>
    <defs></defs>
    <g id="Page-1" stroke="none" stroke-width="1" fill="none" fill-rule="evenodd">
        <g id="process-3" fill="#FFFFFF">
            <g id="Page-1" transform="translate(135.000000, 99.000000)">
                <g id="Group-31" transform="translate(0.000000, 0.008550)">
                    <path d="M130.121559,132.32831 L118.715593,68.76001 C117.921153,64.31876 114.043864,61.21701 109.691051,61.23981 L109.691051,61.22651 L50.8882034,61.22651 L50.8882034,61.24361 C49.0136271,61.19896 47.1172203,61.71671 45.4628475,62.86716 L35.7349831,69.63591 L27.2732881,75.52211 L24.416339,77.51426 L18.3759322,61.36521 C16.6038644,56.63421 11.3398644,54.23546 6.60928814,56.00626 C6.08630508,56.20101 5.59654237,56.43851 5.13905085,56.70831 C1.4060339,58.92846 -0.321423729,63.57016 1.25322034,67.77961 L8.93281356,88.28726 L13.7450169,101.16831 L13.7497627,101.17211 C14.6884746,103.66396 17.4780339,104.62251 20.2495593,102.69306 L20.2552542,102.68926 L20.26,102.68546 L27.3008136,97.78726 L27.3046102,97.78346 L45.0271864,85.45816 L50.1706441,85.45816 C50.1706441,85.45816 36.6309831,170.21526 38.1382373,170.21526 L50.4297627,170.21526 L50.4297627,221.47726 C50.4297627,227.05376 54.9429831,231.57481 60.5183051,231.57481 C66.0917288,231.57481 70.6049492,227.05376 70.6049492,221.47726 L70.6049492,170.21526 L77.0041356,170.21526 L77.0041356,221.47726 C77.0041356,227.05376 81.5221017,231.57481 87.092678,231.57481 C92.6661017,231.57481 97.1774237,227.05376 97.1774237,221.47726 L97.1774237,170.21526 L109.481288,170.21526 C110.984746,170.21526 112.005085,169.00116 111.743119,167.51536 L97.4431864,85.45816 L103.144746,85.45816 L112.134169,135.55831 C112.926712,139.98531 116.775525,143.09181 121.115051,143.09181 C121.656068,143.09181 122.198983,143.04526 122.739051,142.94646 C127.71261,142.05346 131.014712,137.29871 130.121559,132.32831" id="Fill-22"></path>
                    <path d="M15.3898034,30.096245 L6.32349831,31.449045 C4.43943051,31.729295 3.12010847,33.505795 3.39915932,35.393445 L5.77298983,51.336345 C7.08282034,50.888895 8.44200678,50.656145 9.81637966,50.656145 C14.3893966,50.656145 18.5931932,53.173645 20.800922,57.088595 C21.9342102,56.376095 22.605261,55.040395 22.4011932,53.636295 L19.3325831,33.022245 C19.0554305,31.129845 17.2757695,29.815995 15.3898034,30.096245" id="Fill-23"></path>
                    <path d="M81.6364746,0.540605 C65.9887458,0.540605 53.3023729,13.237355 53.3023729,28.900005 C53.3023729,44.564555 65.9887458,57.261305 81.6364746,57.261305 C97.2861017,57.261305 109.968678,44.564555 109.968678,28.900005 C109.968678,13.237355 97.2861017,0.540605 81.6364746,0.540605 M67.6867797,20.670155 C65.1326102,20.670155 63.0625085,18.595355 63.0625085,16.036055 C63.0625085,13.479605 65.1326102,11.406705 67.6867797,11.406705 C70.2447458,11.406705 72.3129492,13.479605 72.3129492,16.036055 C72.3129492,18.595355 70.2447458,20.670155 67.6867797,20.670155 M87.9208136,25.301405 C85.3647458,25.301405 83.2946441,23.230405 83.2946441,20.670155 C83.2946441,18.110855 85.3647458,16.036055 87.9208136,16.036055 C90.4787797,16.036055 92.5450847,18.110855 92.5450847,20.670155 C92.5450847,23.230405 90.4787797,25.301405 87.9208136,25.301405" id="Fill-24"></path>
                    <path d="M96.6728542,60.92441 L90.2043797,60.92441 C90.2043797,60.92441 87.7717017,71.07516 75.6111593,71.07516 C63.4506169,71.07516 59.1557017,60.92441 59.1557017,60.92441 L51.2074983,60.92441 L51.2074983,60.93961 L50.4861424,85.82961 L36.1045831,170.18866 C35.8435661,171.71626 36.8696,172.96931 38.3834983,172.96931 L50.7471593,172.96931 L71.0314983,172.96931 L77.4620068,172.96931 L97.7463458,172.96931 L110.109058,172.96931 C111.622956,172.96931 112.64899,171.71626 112.387973,170.18866 L98.0054644,85.82961 L96.6728542,60.92441 Z" id="Fill-26"></path>
                    <path d="M53.4333559,172.969405 L71.0315932,172.969405 L77.4621017,172.969405 L97.7464407,172.969405 L110.109153,172.969405 C111.623051,172.969405 112.649085,171.716355 112.387119,170.188755 L98.0055593,85.829705 L53.4333559,172.969405 Z" id="Fill-28"></path>
                    <path d="M87.6118644,231.575 L87.6118644,231.575 C93.2488814,231.575 97.8181017,227.0017 97.8181017,221.35965 L97.8181017,182.7165 L77.4056271,221.35965 C77.4056271,227.0017 81.9748475,231.575 87.6118644,231.575" id="Fill-29"></path>
                    <path d="M60.8805017,231.575 L60.8805017,231.575 C66.5175186,231.575 71.086739,227.0017 71.086739,221.35965 L71.086739,182.7165 L50.6742644,221.35965 C50.6742644,227.0017 55.2434847,231.575 60.8805017,231.575" id="Fill-30"></path>
                </g>
            </g>
        </g>
    </g>
</svg>