<?xml version="1.0" encoding="UTF-8"?>
<svg width="400px" height="400px" viewBox="0 0 400 400" version="1.1" xmlns="http://www.w3.org/2000/svg" xmlns:xlink="http://www.w3.org/1999/xlink">
    <!-- Generator: Sketch 43.2 (39069) - http://www.bohemiancoding.com/sketch -->
    <title>process-1</title>
    <desc>Created with Sketch.</desc>
    <defs>
        <polygon id="path-1" points="0.9973 0.455 61.3313 0.455 61.3313 62.1409 0.9973 62.1409 0.9973 0.455"></polygon>
        <polygon id="path-3" points="142.549 14.1502059 142.549 0.455 1.35525272e-20 0.455 1.35525272e-20 253 142.549 253 142.549 14.1502059 142.549479 253.0002 -5.73066329e-05 253.0002 -5.73066329e-05 14.1502059"></polygon>
    </defs>
    <g id="Page-1" stroke="none" stroke-width="1" fill="none" fill-rule="evenodd">
        <g id="process-1">
            <g id="Page-1" transform="translate(129.000000, 73.000000)">
                <g id="Group-3" transform="translate(28.000000, 0.545000)">
                    <mask id="mask-2" fill="white">
                        <use xlink:href="#path-1"></use>
                    </mask>
                    <g id="Clip-2"></g>
                    <path d="M49.8423,29.7359 C47.1203,29.7359 44.9093,27.4799 44.9093,24.7009 C44.9093,21.9119 47.1203,19.6619 49.8423,19.6619 C52.5463,19.6619 54.7553,21.9119 54.7553,24.7009 C54.7553,27.4799 52.5463,29.7359 49.8423,29.7359 M33.9313,20.5789 C33.9313,23.3609 31.7223,25.6159 29.0013,25.6159 C26.2923,25.6159 24.0813,23.3609 24.0813,20.5789 C24.0813,17.7929 26.2923,15.5349 29.0013,15.5349 C31.7223,15.5349 33.9313,17.7929 33.9313,20.5789 M61.3313,31.2999 C61.3313,14.2679 47.8103,0.4549 31.1633,0.4549 C14.5083,0.4549 0.9973,14.2679 0.9973,31.2999 C0.9973,48.3339 14.5083,62.1409 31.1633,62.1409 C47.8103,62.1409 61.3313,48.3339 61.3313,31.2999" id="Fill-1" fill="#FFFFFF" mask="url(#mask-2)"></path>
                </g>
                <g id="Group-6" transform="translate(0.000000, 0.545000)">
                    <mask id="mask-4" fill="white">
                        <use xlink:href="#path-3"></use>
                    </mask>
                    <g id="Clip-5"></g>
                    <path d="M141.6617,19.3692 L135.1797,25.8442 C136.3177,26.3142 137.3827,26.9902 138.3217,27.8842 C140.7457,30.2152 141.7107,33.4462 141.1987,36.4732 C140.8797,38.3652 139.9877,40.1842 138.5187,41.6452 L85.3937,94.7732 L100.5187,183.3202 C100.7747,184.9402 99.6947,186.2632 98.0837,186.2632 L84.9927,186.2632 L84.9927,242.0212 C84.9927,248.0882 80.1847,253.0002 74.2537,253.0002 C68.3297,253.0002 63.5257,248.0882 63.5257,242.0212 L63.5257,186.2632 L56.7107,186.2632 L56.7107,242.0212 C56.7107,248.0882 51.8947,253.0002 45.9587,253.0002 C40.0267,253.0002 35.2307,248.0882 35.2307,242.0212 L35.2307,186.2632 L22.1297,186.2632 C20.5307,186.2632 19.4487,184.9402 19.7147,183.3202 L34.9517,94.0712 L28.8807,94.0712 L19.3107,148.5712 C18.4607,153.3832 14.3727,156.7592 9.7307,156.7592 C9.1817,156.7592 8.5857,156.7072 8.0117,156.6042 C2.7377,155.6332 -0.7993,150.4642 0.1557,145.0542 L12.2967,75.9082 C13.1567,71.0802 17.2727,67.7092 21.9077,67.7352 L21.9077,67.7212 L84.5057,67.7212 L124.2567,27.9742 L124.2827,27.9522 L137.1777,15.0602 C138.3847,13.8632 140.3607,13.8422 141.6037,15.0262 C142.3627,15.7652 142.6657,16.7902 142.5097,17.7302 C142.4077,18.3292 142.1257,18.9032 141.6617,19.3692" id="Fill-4" fill="#FFFFFF"></path>
                </g>
            </g>
        </g>
    </g>
</svg>