<?xml version="1.0" encoding="UTF-8"?>
<svg width="400px" height="400px" viewBox="0 0 400 400" version="1.1" xmlns="http://www.w3.org/2000/svg" xmlns:xlink="http://www.w3.org/1999/xlink">
    <!-- Generator: Sketch 43.2 (39069) - http://www.bohemiancoding.com/sketch -->
    <title>process-2</title>
    <desc>Created with Sketch.</desc>
    <defs></defs>
    <g id="Page-1" stroke="none" stroke-width="1" fill="none" fill-rule="evenodd">
        <g id="process-2" fill="#FFFFFF">
            <g id="Page-1" transform="translate(138.000000, 90.000000)">
                <g id="Group-31" transform="translate(0.000000, 0.140000)">
                    <path d="M124.541,124.3469 L118.579,91.1349 L113.854,64.8039 L112.735,58.6009 C111.912,54.0039 107.9,50.7959 103.392,50.8159 L103.392,50.8069 L90.546,50.8069 L81.32,50.8069 C75.275,57.8219 66.341,62.2729 56.378,62.2729 C46.415,62.2729 37.485,57.8219 31.444,50.8069 L29.667,50.8069 L29.667,50.8159 C25.157,50.7959 21.145,54.0039 20.322,58.6009 L19.206,64.8039 L14.482,91.1349 L12.77,100.6569 L14.177,100.9119 C17.757,101.5699 20.644,104.7999 20.902,108.4269 L21.819,121.2939 C21.948,123.1269 21.389,124.8169 20.233,126.0569 C19.128,127.2429 17.588,127.8979 15.903,127.8979 C15.298,127.8979 14.682,127.8139 14.07,127.6429 L8.376,126.0719 C8.393,130.5479 11.593,134.5099 16.154,135.3319 C16.724,135.4319 17.287,135.4809 17.84,135.4809 C22.33,135.4809 26.319,132.2689 27.142,127.6879 L36.447,75.8619 L41.774,75.8619 L26.96,160.7389 C26.689,162.2789 27.747,163.5379 29.31,163.5379 L42.033,163.5379 L42.033,216.5569 C42.033,222.3239 46.717,226.9999 52.48,226.9999 C58.252,226.9999 62.93,222.3239 62.93,216.5569 L62.93,163.5379 L69.553,163.5379 L69.553,216.5569 C69.553,222.3239 74.227,226.9999 79.998,226.9999 C85.76,226.9999 90.444,222.3239 90.444,216.5569 L90.444,163.5379 L103.17,163.5379 C104.725,163.5379 105.786,162.2789 105.521,160.7389 L90.709,75.8619 L96.61,75.8619 L105.919,127.6879 C106.74,132.2689 110.722,135.4809 115.219,135.4809 C115.776,135.4809 116.338,135.4319 116.903,135.3319 C122.044,134.4059 125.461,129.4869 124.541,124.3469" id="Fill-23"></path>
                    <path d="M2.1601,102.4159 C0.6241,102.4159 -0.1719,103.5829 0.3691,105.2459 L4.5401,118.1779 C4.6171,118.4039 4.7091,118.6349 4.8251,118.8659 L4.9931,119.1569 L5.2181,119.5419 L5.5251,119.9519 L5.7001,120.1809 C5.8421,120.3479 5.9901,120.5109 6.1491,120.6719 L6.2431,120.7719 C6.4291,120.9559 6.6231,121.1269 6.8271,121.2939 L6.8441,121.3069 C7.4741,121.8259 8.1671,122.2239 8.8541,122.4569 L8.8561,122.4569 L9.1111,122.5509 L15.0241,124.1779 C15.3271,124.2659 15.6281,124.3039 15.9051,124.3039 C17.3541,124.3039 18.3521,123.2029 18.2331,121.5509 L17.3191,108.6809 C17.1791,106.7089 15.4751,104.8039 13.5321,104.4469 L12.1361,104.1919 L2.7941,102.4779 C2.5691,102.4359 2.3621,102.4159 2.1601,102.4159" id="Fill-24"></path>
                    <path d="M56.3776,0.0133 C40.1776,0.0133 27.0496,13.1463 27.0496,29.3483 C27.0496,45.5443 40.1776,58.6783 56.3776,58.6783 C72.5816,58.6783 85.7136,45.5443 85.7136,29.3483 C85.7136,13.1463 72.5816,0.0133 56.3776,0.0133 M38.2116,44.8493 C35.5646,44.8493 33.4166,42.7053 33.4166,40.0563 C33.4166,37.4123 35.5646,35.2673 38.2116,35.2673 C40.8596,35.2673 42.9996,37.4123 42.9996,40.0563 C42.9996,42.7053 40.8596,44.8493 38.2116,44.8493 M57.3916,47.7023 C54.7456,47.7023 52.6036,45.5593 52.6036,42.9123 C52.6036,40.2663 54.7456,38.1243 57.3916,38.1243 C60.0406,38.1243 62.1866,40.2663 62.1866,42.9123 C62.1866,45.5593 60.0406,47.7023 57.3916,47.7023" id="Fill-25"></path>
                    <path d="M90.546,50.8064 L81.32,50.8064 C81.32,50.8064 72.49,62.2634 57.075,62.2634 C52.434,62.2634 46.428,61.4904 41.779,58.8494 L41.5,75.8764 L26.349,164.6754 C26.073,166.2824 27.155,167.6014 28.749,167.6014 L41.776,167.6014 L63.146,167.6014 L69.922,167.6014 L91.292,167.6014 L104.318,167.6014 C105.913,167.6014 106.994,166.2824 106.718,164.6754 L91.566,75.8764 L90.546,50.8064 Z" id="Fill-26"></path>
                    <path d="M44.6057,167.6017 L63.1467,167.6017 L69.9217,167.6017 L91.2927,167.6017 L104.3177,167.6017 C105.9127,167.6017 106.9937,166.2827 106.7177,164.6747 L91.5657,75.8757 L44.6057,167.6017 Z" id="Fill-28"></path>
                    <path d="M79.6153,227 L79.6153,227 C85.5543,227 90.3683,222.186 90.3683,216.247 L90.3683,175.57 L68.8623,216.247 C68.8623,222.186 73.6763,227 79.6153,227" id="Fill-29"></path>
                    <path d="M52.4518,227 L52.4518,227 C58.3908,227 63.2048,222.186 63.2048,216.247 L63.2048,175.57 L41.6988,216.247 C41.6988,222.186 46.5128,227 52.4518,227" id="Fill-30"></path>
                </g>
            </g>
        </g>
    </g>
</svg>